<svg width="120" height="60" viewBox="0 0 120 60" fill="none" xmlns="http://www.w3.org/2000/svg">
<path fill-rule="evenodd" clip-rule="evenodd" d="M14.8141 37.6753C14.7983 37.6398 14.7772 37.6086 14.7597 37.5817C14.7378 37.5532 14.7133 37.5263 14.6826 37.4986C14.6826 37.4986 14.4652 37.5939 14.3749 37.7221C14.1978 37.969 14.5511 38.5191 14.5511 38.5191C14.2557 38.423 14.0724 38.1778 14.0645 38.0097C14.0575 37.7853 14.2714 37.2803 14.2714 37.2803C14.3381 37.0793 14.4082 36.7916 14.4783 36.4936C14.5484 36.2025 14.6142 35.9036 14.7133 35.5528C14.914 34.8658 15.2068 34.0913 15.3725 33.3991C15.4978 32.8897 15.5916 32.4418 15.6223 32.1385C15.6977 31.3961 15.7889 29.9996 15.8397 29.083C15.8686 28.5918 15.8599 28.7156 15.8599 28.6749C15.8599 28.5562 15.9291 27.3148 16.527 26.7967C16.9223 26.458 17.294 26.516 17.7473 26.302C17.7473 26.302 17.0985 26.0395 16.2999 26.2145C16.2999 26.2145 14.9201 27.2862 14.2644 32.064C14.2644 32.064 13.4597 36.5109 13.4325 36.964C13.4211 37.1997 13.6446 38.3251 13.6446 38.3251C13.6446 38.3251 14.3451 38.6239 14.4923 38.5954C14.5835 38.5633 14.7062 38.5564 14.914 38.5009C15.1191 38.4411 15.2471 38.4282 15.6004 38.5434C14.7597 38.1708 14.9271 37.8832 14.8141 37.6753Z" fill="#0C0A09"/>
<path fill-rule="evenodd" clip-rule="evenodd" d="M20.6796 21.7182L21.5097 21.7486C21.7569 21.7572 21.9068 21.6844 21.8928 21.5233C21.8805 21.3934 21.5299 21.3249 21.5299 21.3249L20.9268 21.4176C20.9268 21.4176 20.8558 21.6706 20.6796 21.7182Z" fill="#0C0A09"/>
<path fill-rule="evenodd" clip-rule="evenodd" d="M28.528 26.0525C28.528 25.985 28.4053 24.9748 28.4053 24.2046C28.4017 23.8096 28.3965 23.4795 28.393 23.3695C28.3816 23.1356 28.1467 23.243 28.1011 23.3331C27.9854 23.5428 27.9345 23.4977 27.9345 23.4977C27.9345 23.4977 27.8626 23.4856 27.8486 23.6892C27.8179 23.5402 27.8013 23.5531 27.7566 23.509C27.5865 23.3478 27.4927 23.9092 27.4927 23.9092C27.4927 23.9092 27.4778 24.0244 27.469 24.3034C27.4673 24.3614 27.4638 24.4333 27.4638 24.507C27.4638 24.7929 27.4892 25.3222 27.6663 25.7112C27.7004 25.7753 27.7399 25.7987 27.7925 25.803C27.7925 25.803 27.7364 26.1981 27.8626 26.3904C28.0984 26.7517 28.2255 26.6685 28.2255 26.6685C28.6472 26.3246 28.5306 26.1963 28.528 26.0525Z" fill="#0C0A09"/>
<path fill-rule="evenodd" clip-rule="evenodd" d="M18.6668 25.1073C18.6668 25.317 18.744 25.5111 18.8685 25.6739C18.6563 25.8688 18.4117 26.1314 18.3653 26.192C18.2741 26.309 18.0865 26.3618 18.0865 26.3618C18.0865 26.3618 17.8858 27.5617 18.3399 27.4005C18.3399 27.4005 18.4117 27.1138 18.6563 27.1658C19.0657 27.2541 19.1753 27.0999 19.341 26.9743C19.4514 26.892 19.7819 26.9596 19.7819 26.9596C20.0396 26.9033 20.3447 27.0289 20.3973 26.7967C20.3955 26.7646 20.3876 26.7395 20.3876 26.7395C20.1816 26.5706 19.5969 26.6512 19.5969 26.6512C19.5969 26.6512 19.6872 26.6156 19.8126 26.5992C19.8538 26.5905 19.9353 26.6009 19.9423 26.5333C19.9423 26.5333 19.9932 26.5351 20.2605 26.6139C20.4762 26.6823 20.4902 26.5758 20.5042 26.5333C20.499 26.4519 20.4376 26.3965 20.4376 26.3965C20.4376 26.3965 20.1545 26.2804 20.0195 26.257C19.8862 26.2362 19.5163 26.2856 19.5163 26.2856C19.5163 26.2856 19.5294 26.27 19.7442 26.2258C19.8222 26.2085 19.8994 26.2085 19.8923 26.1426C19.8923 26.1426 20.0466 26.1573 20.2535 26.257C20.3964 26.3263 20.4665 26.3237 20.506 26.302C20.5191 26.2786 20.5533 26.25 20.5586 26.2292C20.5586 26.2128 20.5586 26.1963 20.5586 26.1816C20.5419 26.0629 20.4306 26.017 20.4306 26.017C20.4306 26.017 19.9897 25.8619 19.8704 25.8498C19.7521 25.8342 19.3673 25.9304 19.3673 25.9304C19.4646 25.8619 19.5724 25.8533 19.6969 25.8316C19.8704 25.7987 19.8485 25.7051 19.8485 25.7051C19.8485 25.7051 19.8853 25.7597 20.2334 25.8611C20.3289 25.8905 20.5787 26.017 20.506 25.7917C20.4867 25.7623 20.442 25.7112 20.3964 25.6722C20.5069 25.518 20.577 25.3317 20.5814 25.1264C20.591 24.5962 20.1667 24.1552 19.6373 24.1431C19.5724 24.1431 19.511 24.1674 19.4461 24.1786C19.4461 24.1786 19.4479 24.1786 19.4479 24.1769C19.1972 24.526 18.8895 24.8526 18.6668 25.1073ZM19.2831 24.7539C19.3769 24.6655 19.4987 24.6153 19.6302 24.617C19.8994 24.6231 20.1133 24.8474 20.1089 25.116C20.1063 25.2745 20.0265 25.4054 19.9099 25.4929C19.8617 25.4773 19.8222 25.4703 19.8126 25.4625C19.7687 25.4374 19.5207 25.453 19.2884 25.4599C19.2831 25.4539 19.2761 25.4504 19.2699 25.4452C19.1805 25.3516 19.1323 25.2269 19.1341 25.0987C19.1393 24.9679 19.1884 24.844 19.2831 24.7539Z" fill="#0C0A09"/>
<path fill-rule="evenodd" clip-rule="evenodd" d="M19.3234 37.8546C18.8465 37.5107 17.5824 38.0981 17.5824 38.0981C17.5824 38.0981 17.3528 38.6239 17.8191 38.6153C18.0725 38.611 18.5073 38.6378 18.8518 38.5633C19.1271 38.507 19.5513 38.6144 19.916 38.6188C20.4639 38.4706 19.3234 37.8546 19.3234 37.8546Z" fill="#0C0A09"/>
<path fill-rule="evenodd" clip-rule="evenodd" d="M11.9028 35.1144C11.8011 35.7122 11.5714 36.7527 11.5355 37.1287C11.503 37.5038 11.489 38.1709 11.489 38.1709C11.6319 38.2549 11.8116 38.3199 11.8765 38.3537L12.5822 32.6497C12.5822 32.6497 12.0071 34.5192 11.9028 35.1144Z" fill="#0C0A09"/>
<path fill-rule="evenodd" clip-rule="evenodd" d="M42.817 26.633L42.6074 14.6273H43.4622L39.7724 7.3994C40.1406 7.2166 40.3957 6.83888 40.3957 6.40311C40.3957 5.78887 39.8873 5.2864 39.264 5.2864C38.6407 5.2864 38.134 5.78887 38.134 6.40311C38.134 6.83888 38.3874 7.2166 38.7538 7.3994L35.0658 14.6273H35.9206L35.8583 18.142L35.6348 17.2956C34.8975 14.4635 32.2975 12.373 29.2056 12.373C29.1504 12.373 29.0934 12.3748 29.0426 12.3774C28.5306 9.98715 26.7002 8.07514 24.3439 7.42106V5.06202H24.6989L22.9544 1.65037C23.2446 1.50483 23.4418 1.21201 23.4418 0.873269C23.4418 0.390719 23.0465 0 22.559 0C22.0725 0 21.6763 0.390719 21.6763 0.873269C21.6763 1.21201 21.8718 1.50483 22.1611 1.65037L20.4183 5.06202H20.7742V7.42106C18.4188 8.07514 16.5901 9.98715 16.0764 12.3774C16.0221 12.3748 15.9668 12.373 15.9116 12.373C12.8198 12.373 10.2241 14.4635 9.48245 17.2956L9.25803 18.142L9.19667 14.6273H10.0496L6.36429 7.3994C6.7316 7.2166 6.98319 6.83888 6.98319 6.40311C6.98319 5.78887 6.48001 5.2864 5.85322 5.2864C5.22994 5.2864 4.72588 5.78887 4.72588 6.40311C4.72588 6.83888 4.97747 7.2166 5.34566 7.3994L1.65594 14.6273H2.51065L2.30202 26.633H1.1738L0.947632 38.6413H10.7518L10.5414 26.633V21.1664C10.5414 20.2983 10.7702 18.991 11.0165 18.1281C11.1007 17.8405 11.1901 17.5624 11.2839 17.2956C11.9668 15.4182 13.7823 14.0771 15.9116 14.0771C16.5437 14.0771 17.1476 14.1976 17.6999 14.4072C17.6719 14.1898 17.6535 13.9688 17.6535 13.7419C17.6535 11.0579 19.8398 8.87737 22.559 8.87737C25.2757 8.87737 27.4638 11.0579 27.4638 13.7419C27.4638 13.9688 27.4489 14.1898 27.4173 14.4072C27.9705 14.1976 28.5736 14.0771 29.2056 14.0771C31.3367 14.0771 33.1513 15.4182 33.8333 17.2956C33.9306 17.5624 34.0174 17.8405 34.0998 18.1281C34.3496 18.991 34.5758 20.2983 34.5758 21.1664V26.633L34.3672 38.6413H44.1696L43.9452 26.633H42.817ZM5.00553 17.3363H5.00729V17.2055C5.03972 16.768 5.40615 16.4232 5.85323 16.4232C6.08904 16.4232 6.29855 16.5176 6.45283 16.6701C6.59309 16.8113 6.68514 16.9941 6.70004 17.2055H6.70355V21.9435H5.00553V17.3363ZM4.61106 36.3333H2.91303V31.9436C2.91303 31.922 2.91303 31.9003 2.91653 31.8812C2.94897 31.4463 3.3154 31.1033 3.76248 31.1033C4.20781 31.1033 4.57249 31.4463 4.60667 31.8812C4.60667 31.9003 4.61106 31.922 4.61106 31.9436V36.3333ZM5.85323 30.5376C5.14754 30.5376 4.57248 29.9727 4.57248 29.2736C4.57248 28.577 5.14754 28.0096 5.85323 28.0096C6.56066 28.0096 7.13222 28.577 7.13222 29.2736C7.13222 29.9727 6.56066 30.5376 5.85323 30.5376ZM8.79956 36.3333H7.10504V31.9436C7.10504 31.922 7.10504 31.9003 7.1068 31.8812C7.14011 31.4463 7.50741 31.1033 7.95362 31.1033C8.4007 31.1033 8.76537 31.4463 8.79781 31.8812C8.79956 31.9003 8.79956 31.922 8.79956 31.9436V36.3333ZM38.4163 17.2055H38.4181C38.4338 16.9941 38.5259 16.8113 38.6635 16.6701C38.8169 16.5176 39.0299 16.4232 39.264 16.4232C39.7137 16.4232 40.081 16.768 40.1117 17.2055V17.3363H40.1135V21.9435H38.4163V17.2055ZM38.0139 36.3333H36.3159V31.9436C36.3159 31.922 36.3185 31.9003 36.3203 31.8812C36.3545 31.4463 36.7174 31.1033 37.1627 31.1033C37.6116 31.1033 37.9763 31.4463 38.0122 31.8812C38.0122 31.9003 38.0139 31.922 38.0139 31.9436V36.3333ZM39.264 30.5376C38.5583 30.5376 37.9833 29.9727 37.9833 29.2736C37.9833 28.577 38.5583 28.0096 39.264 28.0096C39.9715 28.0096 40.5448 28.577 40.5448 29.2736C40.5448 29.9727 39.9715 30.5376 39.264 30.5376ZM42.206 36.3333H40.5053V31.9436C40.5053 31.922 40.5088 31.9003 40.5088 31.8812C40.5448 31.4463 40.9094 31.1033 41.3574 31.1033C41.8027 31.1033 42.1674 31.4463 42.2033 31.8812C42.2033 31.9003 42.206 31.922 42.206 31.9436V36.3333Z" fill="#0C0A09"/>
<path fill-rule="evenodd" clip-rule="evenodd" d="M20.9487 21.3345L21.5299 21.3249C21.9437 21.3544 22.069 21.1802 21.913 21.013C21.8315 20.9247 21.2415 20.9307 21.2415 20.9307L20.8514 21.0659C20.8514 21.0659 21.0486 21.1075 20.9487 21.3345Z" fill="#0C0A09"/>
<path fill-rule="evenodd" clip-rule="evenodd" d="M24.3061 23.606C24.3833 23.6112 24.4964 23.599 24.6007 23.5575C24.776 23.4812 25.0259 23.2612 25.1319 23.0333C25.1731 22.7925 25.0048 22.6106 24.8935 22.5603C24.8049 22.5213 24.7488 22.5265 24.6559 22.5568C24.5656 22.5863 24.3666 22.6894 24.3666 22.6894C24.4306 22.6261 24.4008 22.4988 24.4008 22.4988C24.5499 22.5993 25.1714 22.329 25.0495 21.6195C25.0259 21.4722 25.0031 21.4341 25.0048 21.357C25.0083 21.2374 25.0241 21.1421 25.0048 21.052C24.982 20.9247 25.0522 20.689 25.0373 20.5738C25.0259 20.4577 24.8461 20.4863 24.7743 20.5166C24.5244 20.6275 24.5157 21.0269 24.4885 21.1516C24.4885 21.1516 24.4517 21.1438 24.4096 21.1213C24.3526 21.1005 24.3456 21.0581 24.2825 20.9983C24.2509 20.9697 24.1317 20.8276 24.0826 20.7592C24.0309 20.6925 23.675 20.307 23.5163 20.1623C23.3629 20.0254 23.2595 20.1528 23.2516 20.2507C23.2402 20.3624 23.5444 20.7843 23.5444 20.7843C23.7933 21.1144 23.8635 21.1438 23.8635 21.1438L23.7968 21.1941C23.7968 21.1941 23.8258 21.1551 23.4786 20.7843C23.4365 20.7427 23.1183 20.3 22.993 20.1736C22.8632 20.0401 22.7265 20.1753 22.7028 20.2229C22.6239 20.3901 23.1411 21.0009 23.1411 21.0009C23.3629 21.3171 23.5487 21.4341 23.5487 21.4341L23.4734 21.4999C23.5181 21.4618 23.0736 21.0009 23.0736 21.0009C22.8922 20.8164 22.7484 20.5816 22.6116 20.4785C22.4319 20.3503 22.3723 20.6431 22.4644 20.7731C22.4986 20.8181 22.5626 20.9411 22.6888 21.1135C22.808 21.2703 23.2297 21.6671 23.2297 21.6671L23.1885 21.6983C23.0824 21.5658 22.7528 21.2383 22.5231 21.0806C22.2952 20.9238 22.2303 21.1265 22.2882 21.2374C22.3399 21.3414 22.5871 21.6368 22.645 21.7026C22.7054 21.7693 23.1534 22.0899 23.1841 22.1367C23.2367 22.2181 23.3594 22.387 23.3875 22.4217C23.4409 22.4936 23.6013 22.7206 23.6987 22.7977C23.6987 22.7977 23.8924 22.9233 24.0125 22.867C23.902 23.1711 24.0072 23.5167 24.3061 23.606Z" fill="#0C0A09"/>
<path d="M30.9978 28.7916C31.0125 28.8138 31.0268 28.837 31.0404 28.8612C31.0262 28.8407 31.012 28.8174 30.9978 28.7916Z" fill="#0C0A09"/>
<path fill-rule="evenodd" clip-rule="evenodd" d="M23.4645 37.0248C23.4426 37.1475 23.4236 37.2538 23.4111 37.3193C23.1928 38.5243 23.4593 38.9592 23.4593 38.9592C23.4593 38.9592 23.8635 38.6413 24.0712 37.4345C24.1808 36.8151 24.5753 34.6007 24.9364 32.5873C24.8304 31.6274 24.7725 30.7204 25.0118 30.5038C25.1574 30.3721 25.4388 30.1503 25.3607 30.2127C25.4984 29.4477 25.5869 28.9392 25.5869 28.9392L26.7134 29.3568C26.3146 29.5115 26.0367 29.7128 25.7476 29.9221C25.7019 29.9552 25.6557 29.9887 25.6088 30.0221C24.9735 30.9965 25.1865 32.2665 25.2719 32.7751L25.2836 32.8455C25.3677 33.3774 25.1162 34.1693 25.1162 34.1693C25.2327 35.4428 25.4466 36.1896 25.4466 36.1896C25.4466 36.1896 25.7149 36.854 26.2023 37.0187C26.2023 37.0187 25.6833 36.9389 25.5992 36.7735C25.5992 36.7735 25.4677 36.9017 25.416 37.0316C25.416 37.0316 24.9268 37.36 25.1013 37.6632C25.0677 37.6963 25.0403 37.7242 25.0163 37.7486C24.9155 37.851 24.8749 37.8923 24.698 38.0028L24.6612 38.0264C24.4766 38.1446 24.4216 38.1798 24.073 38.3199C23.9502 38.3701 23.7863 38.4706 23.7363 38.5564C23.7197 38.6222 23.7705 38.6344 23.7863 38.611C23.8573 38.5209 23.9687 38.4732 23.9687 38.4732C23.8126 38.5564 23.8188 38.6482 23.8678 38.6872L23.8924 38.695C23.9239 38.7037 23.9809 38.695 24.044 38.5789C24.0712 38.5226 24.13 38.4732 24.2623 38.4299C24.2582 38.4325 24.2511 38.4362 24.2419 38.441C24.174 38.4762 23.9936 38.5699 24.087 38.7071C24.2131 38.7618 24.29 38.6397 24.332 38.5731C24.3419 38.5573 24.3499 38.5447 24.3561 38.5382C24.4451 38.4503 24.5248 38.4326 24.6388 38.4073C24.6653 38.4014 24.6936 38.3951 24.7243 38.3875C24.3737 38.4871 24.3386 38.5477 24.435 38.7089C24.5139 38.792 24.7296 38.8033 24.9207 38.7288C25.0877 38.727 25.2951 38.6576 25.4965 38.5902C25.6788 38.5292 25.8563 38.4699 25.9945 38.4637C26.0863 38.4554 26.1047 38.4615 26.2018 38.4934C26.2263 38.5014 26.2557 38.5111 26.2926 38.5226C26.3987 38.5564 26.7081 38.5564 26.7633 38.4533C26.9588 38.086 26.3092 37.6771 26.1935 37.6208C26.0796 37.5653 25.8008 37.3687 25.8008 37.3687C25.8008 37.3687 26.1742 37.5766 26.4881 37.6797C26.7186 37.7698 26.8694 37.7966 26.9185 37.8018C27.1727 37.834 27.352 37.7756 27.5389 37.7146C27.6735 37.6707 27.812 37.6255 27.9854 37.6121C28.9707 36.7293 29.1583 36.2753 29.4668 34.9256C29.4861 34.8447 29.5074 34.7573 29.5299 34.665C29.657 34.1436 29.8223 33.4655 29.8692 32.9217C29.8315 33.7681 29.835 34.0047 29.8526 34.3148C29.8797 34.8285 29.9323 36.5274 29.8938 36.8055C29.8526 37.0828 29.7044 37.1486 29.7044 37.1486C29.7044 37.1486 29.9543 37.788 30.5179 37.8607C30.6512 37.8746 30.8046 37.8607 30.9738 37.7966C30.9738 37.7966 31.5348 38.2151 32.3536 37.9456C32.4833 37.9014 32.6201 37.8391 32.7682 37.7542C32.8638 37.6987 32.8769 33.3367 32.8278 32.758C32.7954 32.3655 32.7577 32.2573 32.6394 32.071C32.6394 32.071 32.7726 32.2486 32.9602 32.5717C33.0351 32.7032 33.0344 32.9103 33.0337 33.1198C33.0334 33.207 33.0331 33.2947 33.0382 33.3774C33.0382 33.3774 33.0663 37.2638 33.0505 37.6441C33.1022 37.5038 33.2232 37.3583 33.2232 37.3583C33.2232 37.3583 33.2363 32.5613 33.1031 31.5425C33.0849 31.4066 33.0423 31.3083 33.0012 31.2136C32.9633 31.1261 32.9267 31.0417 32.912 30.9335L32.9099 30.9184C32.8187 30.2438 32.7941 30.0618 32.6174 29.802C32.6174 29.802 32.8226 29.9658 33.0128 30.4275C33.1417 30.7429 33.2442 31.1908 33.3503 31.8224C33.4152 32.1776 33.5484 32.7337 33.5484 32.7337C33.6571 31.1198 33.338 30.4449 33.338 30.4449C33.2363 30.1676 33.0663 29.7631 32.8927 29.4902C32.7626 29.2757 32.6308 29.0981 32.5505 28.99C32.5199 28.9487 32.4968 28.9176 32.4842 28.8985C32.0358 28.1764 31.8397 27.777 31.5662 27.22C31.4183 26.919 31.2478 26.5718 31.0027 26.1028C30.304 24.7652 30.4776 23.6407 30.4776 23.6407C30.4776 23.6407 30.6091 24.1215 30.7835 24.2653C30.844 24.3121 30.9957 24.6283 30.9308 25.0433C30.9089 25.1654 30.9483 25.5613 31.306 26.2752C31.7426 27.1441 32.1257 27.8173 32.3825 28.1317C32.6201 28.4228 32.7472 28.3856 32.7472 28.3856C32.6201 27.3581 31.7268 24.0556 31.7268 24.0556C31.7268 24.0556 32.0643 24.2558 32.2116 24.8423C32.2293 24.9108 32.2525 25.0343 32.2827 25.1954C32.3388 25.4949 32.4193 25.9245 32.535 26.3722C32.7752 27.3165 33.4835 29.815 33.5283 29.8844C33.4087 29.1092 33.3614 28.6947 33.3283 28.4059C33.2904 28.074 33.2714 27.908 33.1837 27.5513C33.1294 27.3291 33.1175 27.0569 33.1048 26.7642C33.0942 26.5228 33.083 26.2673 33.047 26.0144C32.926 25.1472 32.8909 24.8613 32.8795 24.695C32.7796 23.0351 32.2528 22.9277 32.2528 22.9277C32.4903 22.2987 32.1853 22.135 32.1853 22.135C32.0468 22.0431 31.7461 21.9418 31.6382 21.9903C31.525 22.0631 31.4841 22.0144 31.4416 21.9638C31.4012 21.9158 31.3594 21.866 31.2525 21.9175C31.1158 21.9833 30.7713 22.096 30.7713 22.096C31.42 21.603 31.1482 21.4531 31.1482 21.4531C30.5556 22.2571 29.7316 22.1765 29.7316 22.1765C29.4835 22.1999 29.2407 22.1965 29.0987 22.1809C28.9979 22.1687 28.9391 22.2562 28.897 22.3593L28.89 22.35C28.8779 22.3338 28.8646 22.3159 28.8471 22.3065C28.8979 22.2346 28.9391 22.1644 28.8059 22.0691C28.7577 22.0353 28.7261 21.9972 28.7016 21.96C28.7016 21.96 28.5937 21.733 28.6893 21.5658C28.7089 21.5331 28.7307 21.5029 28.7523 21.4729C28.8138 21.3875 28.8734 21.3049 28.8734 21.1785C28.6945 21.1673 28.4359 21.2331 28.3386 21.3405C28.3061 21.3749 28.2771 21.4076 28.2482 21.4401C28.1884 21.5074 28.1293 21.5741 28.0406 21.6541C27.931 21.7633 27.8626 21.8993 27.8039 22.1211C27.753 22.3264 28.0116 22.4347 28.0116 22.4347C28.0116 22.4347 27.4813 22.3654 27.7969 21.9253C27.7731 21.9484 27.7153 21.9776 27.6477 22.0117C27.5707 22.0506 27.481 22.096 27.4138 22.1462C27.328 22.2122 27.2673 22.3514 27.213 22.476C27.1874 22.5347 27.1632 22.5901 27.1385 22.6331C27.1134 22.6767 27.0831 22.7343 27.051 22.7953C26.9822 22.926 26.905 23.0728 26.8519 23.133C26.7747 23.2213 26.5319 23.6952 26.5512 23.8538L26.4705 24.0929C26.4556 24.1388 26.3163 24.1743 26.2821 24.1518C26.9702 24.6058 26.5836 25.1472 26.5836 25.1472C26.5836 25.1472 26.8826 24.6118 26.3127 24.4481C25.7392 24.2819 25.5259 23.8439 25.4157 23.6178C25.3903 23.5657 25.3704 23.5249 25.3528 23.5012C25.2001 23.3019 25.0627 23.4082 24.9326 23.5088C24.876 23.5525 24.8208 23.5952 24.7664 23.6112C24.6384 23.6493 24.5893 23.6614 24.3061 23.606C24.1203 23.5869 24.0186 23.4423 23.9625 23.3444C23.9012 23.2378 23.9126 23.0628 23.9126 23.0628C23.9126 23.0628 23.7118 23.2525 23.8749 23.5202C24.0379 23.7871 24.1729 24.2436 24.2159 24.4004C24.2606 24.5581 24.3973 25.0077 25.1705 25.9235C25.1705 25.9235 25.2082 25.9572 25.2617 26.0075C25.1652 26.0621 25.0925 26.1331 25.075 26.2258C25.0513 26.3705 25.1486 26.5186 25.3222 26.6209C25.3213 26.6267 25.3196 26.633 25.318 26.639C25.3163 26.6454 25.3147 26.6515 25.3143 26.6564C25.1416 26.7309 24.9636 26.821 24.9145 26.853C24.7708 26.9475 24.6901 27.022 24.6682 27.1086C24.6682 27.2316 24.7445 27.2386 24.9005 27.1459C24.9273 27.1301 25.0768 27.0734 25.1916 27.0299C25.2535 27.0064 25.3053 26.9868 25.3222 26.9795C25.4037 26.944 25.4896 26.97 25.4896 26.97C25.4896 26.97 24.8611 27.2438 24.7515 27.3061C24.6708 27.3503 24.5569 27.4326 24.57 27.5712C24.5832 27.6379 24.6586 27.6648 24.7226 27.6379C24.7649 27.6176 24.9271 27.5574 25.0559 27.5096C25.1244 27.4841 25.1835 27.4622 25.21 27.4517C25.323 27.4102 25.3346 27.4153 25.3578 27.4253C25.3661 27.4289 25.3759 27.4331 25.3923 27.4361C25.3923 27.4361 24.7085 27.7306 24.6568 27.761C24.606 27.7913 24.5788 27.8641 24.5788 27.9238C24.5867 28.0001 24.6568 28.0468 24.7243 28.02C24.7567 28.0089 24.8953 27.9472 25.0147 27.894C25.0826 27.8638 25.1442 27.8363 25.1766 27.8225C25.2652 27.7835 25.3423 27.8337 25.3423 27.8337C25.3423 27.8337 24.7515 28.091 24.7383 28.1144C24.7296 28.1214 24.7077 28.1551 24.7155 28.1794L23.6811 27.8173L23.497 28.8387L24.9277 28.8222C24.9277 28.8222 24.3623 32.0147 23.9178 34.4976C24.0712 35.1456 24.1256 35.7729 23.5382 36.6175C23.5132 36.7525 23.4873 36.8975 23.4645 37.0248ZM26.5512 23.8538C26.6231 23.7437 26.8826 23.6303 26.8826 23.6303C27.007 23.5869 27.0956 23.5705 27.2174 23.5869C27.2317 23.5885 27.2443 23.5903 27.2558 23.5919C27.3447 23.6046 27.3666 23.6077 27.5576 23.4327C27.646 23.3508 27.7084 23.2606 27.7703 23.1711C27.8556 23.0479 27.9398 22.9262 28.0897 22.8298C28.1909 22.7652 28.3137 22.707 28.428 22.6529C28.4978 22.6198 28.5644 22.5883 28.6209 22.5577C28.6314 22.6158 28.6656 22.66 28.7147 22.6747C28.7568 22.6868 28.798 22.673 28.833 22.6452C28.8129 22.8289 28.7831 23.1408 28.7769 23.4388C28.7752 23.5947 28.7769 23.7437 28.7936 23.8728C28.8389 24.2592 28.9096 24.4908 28.9689 24.6846C28.9888 24.7497 29.0074 24.8107 29.0233 24.8717C29.0233 24.8717 28.6893 24.3337 28.6507 24.0478C28.6507 24.0478 28.6262 25.8524 28.8129 26.2293L28.783 26.2535C28.6733 26.3424 28.5777 26.42 28.5455 26.4407L28.4885 26.4822C28.4237 26.5316 28.2773 26.6364 28.2773 26.6364C28.2632 26.6434 28.2448 26.6529 28.2255 26.6685C28.0818 26.7551 27.7785 26.9327 27.7136 26.9561C27.6595 26.9822 27.5969 26.9798 27.5161 26.9767C27.4869 26.9755 27.4552 26.9743 27.4208 26.9743C27.3047 26.9743 27.2406 27.0387 27.1705 27.1089C27.1617 27.1177 27.1529 27.1266 27.1438 27.1355C27.1438 27.1355 26.7958 27.1996 26.7081 27.1459C26.6485 27.1121 26.4364 26.9648 26.2742 26.8478C26.1962 26.7924 26.1322 26.7447 26.0989 26.7162C26.2584 26.6685 26.3881 26.5819 26.4127 26.4554C26.4241 26.3783 26.3916 26.302 26.3434 26.2293L26.3478 26.2291L26.3513 26.2284L25.8008 25.9269C25.9457 25.911 26.0487 25.9126 26.1296 25.9139C26.2728 25.9162 26.3466 25.9174 26.4609 25.8178C26.6687 25.6341 26.9667 25.3751 27.2262 25.1654C27.4147 25.0106 27.4302 24.7615 27.444 24.5382C27.4493 24.4542 27.4551 24.3738 27.469 24.3034C27.5006 23.3556 26.5512 23.8538 26.5512 23.8538ZM32.6394 32.071C32.4903 31.7548 32.2116 31.494 32.2116 31.494C32.2116 31.494 32.0459 31.3944 32.0687 31.1128C32.1055 30.6719 32.1651 30.71 32.3141 30.8997C32.5348 31.1956 32.5677 31.4773 32.6075 31.8188C32.6169 31.8993 32.6267 31.983 32.6394 32.071ZM27.4979 33.1556C27.4598 32.9946 27.3743 32.7744 27.2854 32.5453C27.0845 32.0275 26.8662 31.4651 27.1385 31.4429C27.205 31.437 27.3927 31.5631 27.6222 31.7173C27.9707 31.9514 28.4155 32.2503 28.6788 32.2503C29.1122 32.2503 29.2272 32.0523 29.3087 31.912L29.3099 31.9098C29.6325 31.3311 29.8026 31.2514 29.8026 31.2514C29.686 31.3892 29.5843 31.5598 29.4037 31.9133C29.3473 32.0262 29.2865 32.1433 29.2235 32.2649C29.1181 32.4681 29.0062 32.6838 28.897 32.9131C28.393 33.9726 27.2972 35.409 27.2972 35.409C27.5497 34.8796 27.5777 33.4822 27.4979 33.1556ZM29.8219 32.1585C29.8745 32.1723 29.9051 32.2858 29.9016 32.4617C29.984 31.9696 30.148 31.5104 30.4653 31.2601C30.4653 31.2601 30.3996 31.137 30.119 31.4498C30.0121 31.572 29.673 32.1445 29.2598 32.8421C28.592 33.9693 27.7308 35.4231 27.3437 35.8309C27.3437 35.8309 27.6198 36.3178 27.5093 36.7007C27.5093 36.7007 28.0292 36.4061 28.7208 34.631L28.874 34.24C29.1734 33.476 29.2878 33.1842 29.4055 32.8152C29.5554 32.3837 29.7921 32.1758 29.8219 32.1585ZM30.3592 36.861C30.4118 36.6617 30.4259 34.1961 30.4259 34.1961C30.5048 35.1213 30.8265 37.2552 30.8265 37.2552C30.4513 37.2162 30.3058 37.0576 30.3592 36.861ZM32.4325 32.9999L32.4526 33.1383C32.5675 33.9137 32.3395 35.8118 32.2256 36.5326C32.1116 37.2482 31.8127 37.0654 31.8127 37.0654C32.1116 37.9811 32.5385 37.4466 32.5385 37.4466C32.6087 36.7683 32.7077 34.2637 32.6674 33.296C32.6244 32.3231 32.0827 31.8016 32.0827 31.8016C32.3103 32.1589 32.3369 32.3419 32.4325 32.9999ZM28.8979 22.5716C29.361 22.6815 29.5628 22.6285 29.7296 22.5847C29.7469 22.5802 29.7639 22.5757 29.7807 22.5716C29.736 22.7656 29.3231 22.7578 29.3231 22.7578C29.409 22.7994 29.5615 22.9666 29.6395 23.094C29.8122 23.3686 29.4011 23.2135 29.4011 23.2135C29.3748 22.8427 28.8979 22.5716 28.8979 22.5716ZM29.1001 25.2634C29.0757 25.1286 29.0543 25.0101 29.0355 24.9272C29.0767 25.1325 29.2004 25.9061 28.8129 26.2293C28.9821 26.0872 29.1723 25.9208 29.2188 25.8654C29.173 25.6674 29.1337 25.4498 29.1001 25.2634ZM24.8321 28.2227C24.8373 28.2248 24.8428 28.2267 24.8487 28.2284L24.8321 28.2227ZM30.9978 28.7916C30.9043 28.651 30.7882 28.5459 30.6568 28.4269C30.5763 28.354 30.49 28.2758 30.3996 28.1811C30.3216 28.0997 30.2015 27.9169 30.0743 27.6951C29.9621 27.5106 29.8447 27.2949 29.7325 27.0878C29.7203 27.0599 29.7067 27.0333 29.6934 27.007C29.6827 26.986 29.6721 26.9651 29.6623 26.944C29.508 26.6468 29.3792 26.3783 29.3283 26.2466C29.365 26.3441 29.386 26.3914 29.4059 26.4363C29.4212 26.4707 29.4358 26.5037 29.4563 26.5567C29.4922 26.6556 29.5475 26.7761 29.6035 26.8983C29.7183 27.1488 29.8362 27.4062 29.7973 27.4976C29.7219 27.6795 29.146 27.8978 28.8488 28.0001C28.5762 28.0893 28.0195 28.2366 27.7627 28.2244C27.5646 28.2132 27.4366 28.0789 27.4366 28.0789C27.5251 28.2539 27.3761 28.4956 27.1526 28.318C27.1526 28.318 27.128 28.2565 27.1043 28.1742C27.0631 28.1794 26.8256 28.1586 26.8256 28.1586C26.7321 28.1563 26.6483 28.1974 26.5594 28.2409C26.4457 28.2966 26.3238 28.3563 26.1628 28.3345C25.9262 28.3024 25.7806 28.1958 25.7429 27.9541C25.7121 28.0414 25.7077 28.0427 25.6272 28.066C25.6094 28.0711 25.5878 28.0774 25.5615 28.0858C25.5019 28.1031 25.1091 28.2331 25.1091 28.2331C25.0659 28.2492 24.9271 28.2518 24.8487 28.2284L25.0732 28.3059C25.0732 28.3059 25.2652 28.2504 25.3712 28.2132C25.4607 28.1811 25.5615 28.1794 25.5615 28.1794C25.5615 28.1794 25.6246 28.2166 25.707 28.2582L25.6999 28.2998C25.6941 28.3342 25.6885 28.3669 25.6816 28.4055L26.0769 28.4072L26.0918 28.4119C26.1048 28.416 26.1183 28.4203 26.1322 28.4228C26.2187 28.4367 26.304 28.4296 26.3849 28.4229L26.4293 28.4194C26.5418 28.4106 26.5577 28.4109 26.6093 28.4117C26.6293 28.412 26.6547 28.4124 26.6932 28.4124L27.0631 28.4159H27.1105L26.9273 29.4382C26.9273 29.4382 27.128 29.2415 27.6636 29.5395C27.6636 29.5395 27.9959 29.8861 27.9853 30.0264C27.9687 30.23 27.8828 30.3452 27.5286 30.4501C27.2665 30.528 27.306 30.8832 27.4366 30.988C27.6303 31.1371 28.2431 31.2757 28.833 31.196C29.2906 31.1336 29.8841 31.0305 30.1331 30.8269C30.1415 30.8199 30.15 30.8127 30.1587 30.8053C30.2147 30.7573 30.2819 30.6998 30.4443 30.6346C30.3973 30.6224 30.3083 30.6472 30.2348 30.6678C30.2041 30.6764 30.1761 30.6842 30.155 30.6883C29.6501 30.7715 28.8243 30.5956 27.6636 29.5395C27.6636 29.5395 27.4708 29.3749 27.1841 29.2303C27.1841 29.2303 26.9904 28.9522 27.4155 29.0994C27.4155 29.0994 27.306 29.0319 27.1762 28.8898C27.0903 28.7979 27.0132 28.4228 27.6303 28.7018C27.6303 28.7018 28.5455 29.5057 29.5352 29.3316C30.1778 29.2129 30.5021 29.2822 30.9597 29.4295C30.9597 29.4295 30.7178 29.1757 30.2681 29.0908C29.8166 29.0067 29.7044 28.9929 28.8681 28.9522C28.2606 28.9235 28.0798 28.8533 27.9111 28.7878C27.8301 28.7563 27.7518 28.726 27.6303 28.7018C27.6303 28.7018 27.2069 28.3838 27.8898 28.4921C27.9582 28.5025 28.7436 28.467 29.4993 28.1335C29.7335 28.0344 29.9029 28.1161 30.216 28.2672L30.2549 28.2859C30.5574 28.4315 31.0404 28.8612 31.0404 28.8612C31.0572 28.891 31.0739 28.921 31.0907 28.9511C31.1509 29.0592 31.2114 29.1675 31.2744 29.2658C31.3568 29.3871 31.4445 29.4954 31.5453 29.5733C31.5453 29.5733 31.754 29.8055 31.7969 30.0455C31.7993 30.058 31.8012 30.0704 31.8031 30.0829C31.8166 30.1709 31.8302 30.2596 32.0161 30.3955C32.0161 30.3955 32.2896 30.489 32.4824 30.7463C32.2799 30.4275 32.0897 30.1789 31.9021 29.9588C31.7575 29.7864 31.5997 29.6123 31.5453 29.5733C31.4232 29.4371 31.0651 28.5192 30.8178 27.8849C30.7048 27.5952 30.6148 27.3647 30.581 27.2949C30.4741 27.0696 29.9507 25.4643 29.9016 25.2503C29.8526 25.038 29.3503 23.5583 29.3503 23.5583C29.3503 23.5583 29.3047 23.9395 29.3432 24.2471C29.3713 24.4819 29.5659 25.1827 29.6842 25.3976L29.6895 25.407C29.8156 25.6331 30.2613 26.4324 30.3996 26.8764C30.4358 26.9943 30.4804 27.1631 30.531 27.3543C30.6615 27.8477 30.8314 28.4902 30.9978 28.7916ZM29.0171 30.0914C29.7991 30.5376 30.3382 30.1841 30.3382 30.1841C29.9788 30.2673 29.6465 30.2248 29.629 30.0671C29.5817 29.653 30.3636 29.4208 30.3636 29.4208C30.0337 29.4172 29.8347 29.4673 29.5726 29.5333C29.4566 29.5625 29.3282 29.5949 29.1705 29.627C28.6568 29.7388 27.8784 29.3749 27.8784 29.3749C27.945 29.4295 28.2273 29.6461 29.0171 30.0914Z" fill="#0C0A09"/>
<path fill-rule="evenodd" clip-rule="evenodd" d="M16.5287 24.2939C16.5287 24.2939 16.5901 25.0684 16.8671 25.2061C17.1792 25.3612 17.3791 25.7337 17.8069 25.5284C17.8069 25.5284 19.3769 24.0755 19.3778 23.4622C19.1665 23.3305 19.0964 23.1122 19.0823 23.0801C19.213 23.3478 19.4751 23.4916 19.6425 23.3461C20.03 23.0091 20.0265 22.945 20.0265 22.945C20.2658 22.9891 20.5279 22.7102 20.5174 22.6391C20.5095 22.5603 20.4709 22.4893 20.4183 22.4537C20.6734 22.627 20.7777 22.2779 20.7777 22.2779C20.9005 22.2068 20.9347 22.1202 20.9347 22.1202L20.8926 22.0769C21.2809 22.1202 21.6219 21.9296 21.6219 21.9296C21.6614 21.895 21.6649 21.8664 21.6509 21.8386C21.6219 21.7823 21.5106 21.7494 21.5106 21.7494C21.5106 21.7494 20.5656 21.8083 20.5069 21.8231C20.3 21.8716 20.3973 22.0587 20.3911 22.1783C20.3824 22.329 20.3272 22.3792 20.3272 22.3792C20.3876 22.2476 20.3657 22.1999 20.307 22.0708C20.2526 21.9521 20.1562 21.9963 20.1922 21.9175C20.2298 21.8343 20.3 21.7494 20.5121 21.7191C20.6787 21.6983 20.8908 21.3934 20.904 21.1664C20.9057 21.1066 20.8856 21.0763 20.8514 21.0659C20.7471 21.0312 20.5297 21.1534 20.4455 21.2002C20.3719 21.2478 20.0431 21.3249 20.0431 21.3249C20.0431 21.3249 20.1737 21.2989 20.314 21.2227C20.4508 21.1464 20.7155 20.9905 20.7935 20.9905C20.8707 20.9905 21.1538 20.9307 21.2415 20.9307C21.714 20.7774 21.4904 20.5816 21.3861 20.5738C21.337 20.5703 20.8347 20.6682 20.7628 20.6682C20.6752 20.6682 19.8345 21.0581 19.7302 21.1075C19.6267 21.1603 19.3585 21.7711 19.3243 21.8889C19.2884 22.005 19.1542 22.3533 19.1542 22.3533C18.9184 22.2978 18.7983 22.5265 18.7028 22.6426C18.5897 22.7717 18.1321 23.3556 18.0523 23.4405C17.9717 23.528 17.3317 23.9196 17.3317 23.9196C17.1634 24.2133 17.2748 24.4325 17.259 24.403C17.259 24.403 17.1126 24.2436 17.1599 23.9906C17.1599 23.9906 17.2222 23.8165 17.1757 23.6926C17.1345 23.6337 17.074 23.5471 17.0538 23.5176C17.0144 23.4648 16.9785 23.4223 16.9609 23.4015C16.9609 23.4015 16.4393 23.0732 16.5287 24.2939Z" fill="#0C0A09"/>
<path fill-rule="evenodd" clip-rule="evenodd" d="M19.5592 27.0055C19.5741 27.1814 19.5917 27.3772 19.6118 27.5903C19.0657 27.6579 18.5406 27.7523 18.126 27.8337C17.9121 28.0165 17.5693 28.1837 17.2134 28.3163L17.2169 28.3145C17.2388 28.4532 17.2905 28.5597 17.3431 28.5545C17.3431 28.5545 18.4906 28.5511 19.6872 28.4445C19.7398 29.0102 19.7985 29.6409 19.8573 30.2872V30.2837C19.9169 30.4215 20.03 31.4637 19.9695 31.5616C19.9721 31.5616 19.9721 31.5546 19.9721 31.5546C19.9721 31.5598 19.9721 31.5616 19.9739 31.565C19.9721 31.565 19.9721 31.5633 19.9695 31.5616C18.8816 30.0316 17.2993 29.4295 16.3832 29.1939C16.1299 29.1757 15.9756 29.1722 15.9291 29.5803C15.9291 29.5803 15.8774 30.2014 15.9002 30.5306C15.9204 30.7879 16.051 31.2367 16.2202 31.2904C16.3894 31.345 16.5936 31.306 16.5936 31.306C16.5436 31.3181 16.3876 31.416 16.2894 31.4819C16.193 31.5477 15.9791 31.6681 15.8932 31.8154C15.8064 31.9627 16.214 31.8596 16.214 31.8596C16.2324 31.9809 16.4349 31.9376 16.4349 31.9376C16.4349 31.9376 16.4533 32.233 17.1108 31.8864C17.4816 31.6898 17.664 31.5139 17.9497 31.4264C17.8551 31.4567 17.6789 31.5919 17.5597 31.6898C17.3379 31.8657 17.188 32.0147 16.9784 32.1775C16.7856 32.3265 16.1439 32.5873 15.667 32.7121C15.7547 32.8048 15.9545 32.7337 15.9545 32.7337C15.9519 33.8816 17.7271 32.9217 17.7271 32.9217C16.2956 34.0739 15.7249 32.9338 15.3725 33.3991C17.031 34.5106 18.8325 32.5509 19.1919 32.1671C19.6066 31.7305 20.1378 31.8171 20.1378 31.8171C20.1378 31.8171 20.1308 32.2486 20.0826 32.797C20.0826 32.7935 20.0843 32.7848 20.0843 32.7814C20.2342 34.4378 20.3605 35.8032 20.378 35.9946C20.4341 36.5361 20.4341 36.7345 20.2369 36.8306C19.966 36.964 19.7986 36.9476 19.5259 36.7596C19.3559 36.6409 19.2103 36.5023 19.0823 36.3567C18.8965 36.1419 18.7606 35.9218 18.6721 35.7581C18.9044 35.9071 19.0902 35.9149 19.2095 35.8915C19.2235 35.8881 19.2524 35.8811 19.2524 35.8811C19.3225 35.8612 19.3637 35.8361 19.3673 35.8309L19.4479 35.7728L19.3637 35.7226C19.348 35.7122 19.3348 35.7018 19.319 35.6931C19.319 35.6949 19.3173 35.6949 19.3173 35.6949V35.6931C18.4924 35.1491 18.3285 34.203 18.296 33.8678C18.3241 34.0999 18.4389 34.5868 18.9044 34.8476C19.7039 33.8496 19.9967 33.127 19.5776 32.6514C19.3892 32.4366 18.7063 32.8117 18.2811 33.1028C17.9717 33.3176 17.664 33.5446 17.1809 33.9388C16.7444 34.2975 15.8318 35.1889 15.8318 35.1889C15.8318 35.1889 16.8233 33.8981 16.2973 33.9605C15.9651 34.1199 15.7801 34.6223 15.4978 35.1144C15.2664 35.5736 15.2787 35.6732 14.8456 35.8742C14.8237 36.7916 16.5822 35.7642 17.2186 35.1369C17.5956 34.7627 17.7113 34.6258 17.82 34.3209L17.7867 34.4092C17.7139 34.6137 17.6745 34.8121 17.657 35.0001C17.415 35.208 17.5123 35.1387 17.3046 35.2808C17.294 35.2911 17.2677 35.3093 17.2274 35.3397C16.9294 35.5614 15.887 36.3446 14.9727 36.7345C14.5616 36.9086 15.0017 37.6043 15.0017 37.6043C14.9254 38.0712 15.6004 38.5434 15.6004 38.5434C15.6004 38.5434 15.9326 38.6525 16.2272 38.4637C16.5577 38.5867 17.0863 38.3753 17.5824 38.0981C18.2171 37.7412 18.7913 37.2759 18.7913 37.2759C18.6125 37.0966 18.4766 37.0507 18.3284 36.99C18.3284 36.99 18.1417 36.9268 17.8191 36.99C17.493 37.0507 17.0416 37.2317 16.2921 37.7108C16.2921 37.7108 17.0039 37.0793 17.6447 36.3992C17.8314 36.1973 17.6534 35.7676 17.6534 35.3449C17.6929 36.0605 18.0471 36.5447 18.0523 36.5534L18.2101 36.7665L18.1715 36.504C18.14 36.2961 18.1636 36.0353 18.1908 35.8421C18.403 36.472 18.6247 36.8765 18.8246 37.1451H18.8264V37.1486C19.0262 37.418 19.2033 37.5566 19.3313 37.6528C19.7153 37.9491 20.307 38.345 20.7164 38.6144L20.7181 38.6153C20.9802 38.7868 21.167 38.9064 21.1713 38.9098L21.2178 38.9393L21.2546 38.8986C21.266 38.8882 22.2584 37.878 22.7624 37.269C22.9658 37.0204 23.334 36.5716 23.4628 35.2487C23.533 35.4315 23.6119 35.6784 23.6303 35.8915L23.6426 36.0388C23.6408 36.057 23.639 36.0657 23.6355 36.083L23.6426 36.0371L23.6531 36.1523L23.7583 35.908C23.7626 35.9002 23.9836 35.3769 23.8819 34.6986C23.8109 34.2195 23.5803 33.665 23 33.1539L22.8483 33.0187L22.8922 33.218C22.8922 33.2301 23.1701 34.521 22.2899 35.3908L22.2215 35.4601L22.3118 35.4991C22.3241 35.506 22.6292 35.6273 22.9737 35.2721C22.8922 35.5718 22.7168 36.0553 22.3688 36.4382C22.1462 36.6816 21.9875 36.7379 21.6903 36.6652C21.4764 36.6175 21.4326 36.4226 21.3633 35.8863C21.3177 35.5294 20.7041 31.189 20.3061 28.3752C21.5194 28.2149 22.6686 27.9541 22.6686 27.9541C22.7247 27.9455 22.7528 27.8207 22.7361 27.6735C22.7177 27.5227 22.6607 27.4058 22.6064 27.411C22.6064 27.411 21.4098 27.4144 20.1869 27.5279C20.158 27.3243 20.1308 27.1389 20.1062 26.97C20.1501 26.9717 20.1965 26.9743 20.2325 26.9717C20.1098 26.9778 19.9353 26.9596 19.7819 26.9596C19.6855 26.9596 19.6259 26.9778 19.5592 27.0055Z" fill="#0C0A09"/>
<path fill-rule="evenodd" clip-rule="evenodd" d="M12.4805 37.3314C12.5699 37.0793 12.5252 36.1653 12.5252 36.1653C12.5252 36.3108 12.4945 36.8306 12.1412 37.3886C12.0168 37.5852 11.8765 38.3537 11.8765 38.3537C11.8765 38.3537 11.9633 38.5564 12.2894 38.4706C12.257 37.9291 12.3472 37.7108 12.4805 37.3314Z" fill="#0C0A09"/>
<path fill-rule="evenodd" clip-rule="evenodd" d="M17.7473 26.302C17.7473 26.302 17.0249 26.5992 16.7821 26.7482C16.3403 27.0098 16.1825 27.475 16.1606 27.631C16.1229 27.9134 16.0948 28.2062 16.804 27.9593C18.0795 27.5175 18.062 27.4274 18.062 27.4274C17.8691 27.2914 18.0865 26.3618 18.0865 26.3618C18.0251 26.2734 17.7473 26.302 17.7473 26.302Z" fill="#0C0A09"/>
<path fill-rule="evenodd" clip-rule="evenodd" d="M27.0596 6.70286L30.3777 6.70199L30.3812 6.70632L29.643 9.89272L29.6369 9.90744L29.6395 9.90138L29.6387 9.90918L29.6465 9.89272L31.6978 7.33702H31.7049L33.7746 9.90484L33.0233 6.70892L33.0277 6.70632L36.3483 6.70286L33.3503 5.29332L35.4235 2.7255L32.4386 4.15842L31.7057 0.955566L30.9781 4.15409L27.9932 2.71683L27.9871 2.72376L30.0586 5.28639V5.28986L27.0596 6.70286Z" fill="#0C0A09"/>
<path fill-rule="evenodd" clip-rule="evenodd" d="M30.4259 50.0033C28.3062 51.6208 25.5615 52.5937 22.5582 52.5937C19.5592 52.5937 16.811 51.6208 14.6905 50.0033C12.5717 51.6208 9.8252 52.5937 6.82189 52.5937C6.59396 52.5937 6.41075 52.5885 6.18458 52.5789C6.93147 53.4383 7.74585 54.2371 8.62598 54.9674C10.9464 54.6703 12.9872 53.7832 14.6905 52.4836C16.811 54.1002 19.5592 55.0757 22.5582 55.0757C25.5615 55.0757 28.3062 54.1002 30.4259 52.4836C32.1309 53.7832 34.1752 54.6686 36.4939 54.9666C37.3705 54.2354 38.1857 53.4383 38.9318 52.5789C38.7073 52.5885 38.5259 52.5937 38.2962 52.5937C35.2938 52.5937 32.5464 51.6208 30.4259 50.0033Z" fill="#0C0A09"/>
<path fill-rule="evenodd" clip-rule="evenodd" d="M38.9344 52.5789L38.9458 52.5651C38.9405 52.5703 38.9353 52.5755 38.9318 52.5789L38.9344 52.5789Z" fill="#0C0A09"/>
<path fill-rule="evenodd" clip-rule="evenodd" d="M16.1421 17.8777C16.1421 17.8777 15.9519 17.9921 15.8318 17.9765C15.8318 17.9765 15.5872 18.1602 15.5119 18.3716C15.4707 18.4833 15.4444 18.531 15.3812 18.5925C15.3111 18.6661 15.234 18.7016 15.234 18.7016C15.234 18.7476 15.2208 18.7917 15.198 18.8394C15.1481 18.9338 15.0735 19.0612 15.0078 19.1261C14.9052 19.2301 14.8938 19.3505 14.914 19.3912C14.9684 19.4666 14.914 19.4978 14.8921 19.5957C14.8728 19.6702 14.9201 19.8443 14.9175 19.9189C14.9052 20.1207 14.8763 20.1493 14.8263 20.2377C14.7729 20.3295 14.8544 20.4326 14.8544 20.4326C14.8316 20.4568 14.7746 20.4872 14.736 20.495C14.8728 20.825 15.2576 20.7852 15.4189 20.7661C15.4768 20.7592 15.6547 20.7765 15.7608 20.7869C15.8871 20.8008 16.1246 20.8562 16.2342 20.8337C16.5629 20.7739 16.4586 20.4655 16.4481 20.3667C16.4235 20.2645 16.2368 20.1242 16.2368 20.1242C16.2368 20.1242 16.3981 20.1917 16.5436 20.1943L16.5261 20.1155C16.5261 20.1155 16.4788 20.099 16.3981 20.0791C16.3043 20.0583 16.0948 20.0514 16.0948 20.0514C16.0948 20.0514 16.3876 19.9951 16.5848 20.0219L16.5436 19.7664C16.9495 19.7742 16.8706 19.5411 16.8128 19.4146C16.7786 19.3436 16.7163 19.1859 16.6743 19.0282C16.6436 18.9113 16.6146 18.8186 16.6146 18.8021C16.6146 18.7917 16.6567 18.7051 16.6436 18.6393C16.5936 18.3811 16.6041 17.9445 16.6041 17.9445C16.5086 17.9445 16.3937 17.8777 16.3937 17.8777C16.3937 17.8777 16.2666 17.9332 16.1421 17.8777ZM16.3236 19.0083C16.2728 19.0386 16.2368 19.0534 16.1693 19.0187C16.0852 18.9797 16.1693 18.8914 15.9519 18.8602C15.9519 18.8602 15.9879 18.8255 16.0948 18.7987C16.2649 18.7493 16.392 18.8238 16.392 18.8238C16.392 18.8238 16.3797 18.9754 16.3236 19.0083ZM16.4069 18.777C16.3043 18.7623 16.2526 18.7025 16.1124 18.7311C15.9721 18.7571 15.8485 18.7692 15.7266 18.7372C15.7266 18.7372 15.8739 18.699 15.9633 18.6488C16.051 18.5959 16.2815 18.5032 16.5989 18.6704C16.5989 18.6704 16.5086 18.7917 16.4069 18.777Z" fill="#0C0A09"/>
<path fill-rule="evenodd" clip-rule="evenodd" d="M30.4259 45.0418C28.3062 46.6584 25.5615 47.6365 22.5582 47.6365C19.5592 47.6365 16.811 46.6584 14.6905 45.0418C12.5717 46.6584 9.8252 47.6365 6.82189 47.6365C5.34916 47.6365 3.95883 47.4026 2.65442 46.9711H2.65266C3.08221 47.9709 3.58627 48.9308 4.15783 49.8439C5.02393 50.0224 5.89617 50.1168 6.82189 50.1168C9.8252 50.1168 12.5717 49.1404 14.6905 47.523C16.811 49.1404 19.5592 50.1168 22.5582 50.1168C25.5615 50.1168 28.3062 49.1404 30.4259 47.523C32.5464 49.1404 35.2938 50.1168 38.2962 50.1168C39.2228 50.1168 40.0907 50.0224 40.9611 49.8439C41.5318 48.9308 42.0359 47.9709 42.4637 46.9711C41.1593 47.3991 39.7689 47.6365 38.2962 47.6365C35.2938 47.6365 32.5464 46.6584 30.4259 45.0418Z" fill="#0C0A09"/>
<path fill-rule="evenodd" clip-rule="evenodd" d="M13.6043 20.0549C13.6148 19.9665 13.6201 19.9457 13.6385 19.8634C13.6788 19.6633 13.7753 19.5056 13.7753 19.5056C13.5579 20.2299 13.8989 20.4863 13.8419 20.4464C13.8419 20.4464 13.7323 20.1623 13.9103 19.9431C13.9103 19.9431 13.8594 20.1735 13.9243 20.2377C13.9243 20.2377 13.9331 20.0237 14.0602 19.8608C14.1671 19.7204 14.1987 19.6459 14.232 19.5091C14.2741 19.3254 14.2977 19.2474 14.3416 19.1755C14.3416 19.1755 14.296 19.2769 14.2837 19.4831C14.2793 19.607 14.2758 19.6208 14.2399 19.7204C14.1654 19.9266 14.0269 20.3217 14.3345 20.5313C14.3345 20.5313 14.1724 20.2013 14.3372 19.9907C14.3372 19.9907 14.3004 20.3217 14.4845 20.3927C14.4845 20.3927 14.424 20.1406 14.5213 19.9353C14.5888 19.7976 14.5888 19.6338 14.5905 19.5749C14.5905 19.5749 14.6501 19.7976 14.5905 19.9457C14.5388 20.0653 14.5537 20.2351 14.6431 20.3182C14.6431 20.3182 14.58 20.2125 14.6913 20.0618C14.8044 19.9136 14.8693 19.7343 14.8316 19.5784C14.7808 19.3661 14.6317 19.2674 14.8938 18.9208C14.8938 18.9208 14.85 19.1755 14.8895 19.3219C14.8816 19.2812 14.8781 19.2249 14.8982 19.1469C14.9499 18.9416 15.0078 18.9988 14.9499 18.7744C14.9122 18.6323 15.0648 18.4937 15.0648 18.4937C15.0648 18.4937 15.0472 18.5162 15.0437 18.5959C15.0437 18.6323 15.0727 18.686 15.0867 18.7216C15.1034 18.7683 15.1095 18.8714 15.1095 18.8714C15.1542 18.7995 15.1384 18.6289 15.1332 18.5093C15.1226 18.3577 15.2033 18.2096 15.2033 18.2096C15.2033 18.2096 15.1875 18.2659 15.1963 18.427C15.2015 18.5344 15.234 18.6202 15.234 18.7016C15.234 18.7016 15.3146 18.6826 15.3251 18.4729C15.3374 18.2953 15.3961 18.2286 15.3812 18.0839C15.4812 18.2009 15.4224 18.4703 15.4224 18.4703C15.5627 18.2979 15.4961 18.2156 15.4733 18.0727C15.4514 17.941 15.6022 17.85 15.6022 17.85C15.539 17.9107 15.5592 18.0571 15.6363 18.0649C15.7065 18.0727 15.8318 17.9765 15.8318 17.9765C15.8318 17.9765 16.0764 17.9228 16.0764 17.7149C16.0764 17.7149 16.1781 17.9488 16.335 17.7547C16.335 17.7547 16.3368 17.8327 16.3937 17.8777C16.5971 17.9436 16.5068 17.5849 16.5068 17.5849C16.5068 17.5849 16.5577 17.6144 16.5989 17.6733C16.7049 17.8171 16.6462 17.5581 16.6462 17.5581C16.5024 17.2999 15.9397 17.1777 15.6705 17.1483C15.404 17.1171 15.1016 17.1024 14.7974 17.1171C14.3749 17.1414 14.1759 17.3172 13.9804 17.4784C13.7937 17.6326 13.6175 17.9739 13.4386 18.732C13.2616 19.4917 13.0661 20.0964 13.0661 20.1943C13.0801 20.7072 13.5614 20.4239 13.6043 20.0549Z" fill="#0C0A09"/>
<path fill-rule="evenodd" clip-rule="evenodd" d="M17.9138 28.8776C17.3317 28.6021 16.8557 28.4358 16.8557 28.4358C15.9791 28.6515 16.5261 28.9946 16.648 29.0474C17.0486 29.2094 17.6456 29.5179 18.2741 29.912C18.9184 30.3175 19.8292 30.9066 19.8529 30.3097C19.5347 29.7422 18.6493 29.2233 17.9138 28.8776Z" fill="#0C0A09"/>
<path fill-rule="evenodd" clip-rule="evenodd" d="M12.0632 9.30188C11.0954 9.30188 10.2179 8.93368 9.55959 8.33764C10.3564 9.3244 11.6048 9.94557 12.9828 9.94557C15.3865 9.94557 17.3317 8.02143 17.3317 5.64592C17.3317 3.27042 15.3865 1.34455 12.9828 1.34455C11.6161 1.34455 10.3564 1.97871 9.55959 2.95507C10.2179 2.3573 11.0954 1.99084 12.0632 1.99084C14.104 1.99084 15.7591 3.62735 15.7591 5.64592C15.7591 7.66363 14.104 9.30188 12.0632 9.30188Z" fill="#0C0A09"/>
<path fill-rule="evenodd" clip-rule="evenodd" d="M13.2703 21.4783C13.2353 21.208 13.4702 21.1369 13.5903 21.0884C13.5903 21.0884 13.4141 21.0927 13.1388 21.3188C13.0512 21.3899 12.9004 21.5276 12.811 21.6325C12.5147 22.0007 12.1263 22.5387 11.9633 23.0931C11.6389 24.202 11.6109 24.6681 11.5802 25.3092C11.5609 25.7164 11.447 27.1658 11.4154 28.091C11.3952 28.7001 11.3646 29.089 11.3593 29.3767C11.3461 29.6617 11.2944 37.9508 11.2944 37.9508L11.4505 36.0388L11.9072 31.4091C11.9072 31.4091 12.1263 29.6426 12.1693 28.5311C12.214 27.4248 12.3025 25.3092 12.3472 25.0051C12.3902 24.6958 12.5664 23.9092 12.7295 23.7195L12.5094 30.6069C12.5094 30.6069 12.5664 32.1082 12.5822 32.6497C12.5822 32.6497 12.5252 36.0163 12.5252 36.1653L12.967 38.4706C13.0994 38.5382 13.308 38.5564 13.5579 38.3684L13.2905 37.6684L12.9092 35.6126C12.9092 35.6126 13.0231 35.5987 13.1143 35.5077C13.2063 35.4211 13.2616 35.2028 13.2616 35.2028C13.2905 34.5019 13.9708 30.5038 14.2066 29.8038C14.4424 29.1029 14.5318 27.2949 16.2991 26.2137C16.2991 26.2137 16.0948 26.0109 15.7407 25.952C15.3865 25.8931 15.4768 25.8628 15.4768 25.8628C15.6109 25.6497 15.2392 25.1333 15.2392 25.1333C14.8158 24.4533 14.573 24.3424 14.2364 23.9568C13.7937 23.4535 14.2066 23.2976 14.2066 23.2976C14.2837 23.6363 14.4117 23.7922 14.5888 24.034C14.7667 24.2783 15.2392 25.1333 15.2392 25.1333C15.2392 25.1333 15.4189 23.8997 14.5511 22.8861C14.3381 22.6391 14.1329 22.4356 13.9515 22.264C13.8743 22.1939 13.8042 22.1263 13.7376 22.0665C13.6385 21.9755 13.4378 21.7763 13.4229 21.752C13.3983 21.7252 13.4001 21.707 13.3843 21.6818C13.4562 21.752 13.5675 21.8248 13.7341 21.895C14.4222 22.1904 15.106 22.3299 15.4496 22.0362C15.5645 21.9573 15.5741 21.6827 15.539 21.6065C15.4838 21.4826 15.3935 21.4289 15.4838 21.1733C15.5145 21.0867 15.546 20.987 15.3129 20.974C15.042 20.9593 14.8369 20.7895 14.7886 20.7081C14.7597 20.6622 14.736 20.495 14.736 20.495C14.736 20.495 14.6387 20.5166 14.58 20.4941C14.58 20.4941 14.4757 20.6258 14.388 20.5799C14.388 20.5799 14.2031 20.6951 13.9997 20.5946L13.713 20.6804C13.713 20.8718 13.5903 21.0884 13.5903 21.0884C13.5903 21.0884 13.358 21.3786 13.2703 21.4783ZM14.4441 25.4279C14.7466 26.14 15.2752 25.9875 15.2752 25.9875C14.2714 26.451 13.8989 28.1924 13.8989 28.1924C13.9909 26.7612 14.6501 26.3713 14.4441 25.4279ZM13.713 22.2666C13.713 22.2666 13.5956 22.219 13.4141 22.1393C13.2633 22.0708 13.0573 21.9963 12.9381 21.7763C12.8706 21.6091 13.0634 21.3899 13.152 21.3189C13.152 21.3189 12.8645 21.6325 13.713 22.2666Z" fill="#0C0A09"/>
<path fill-rule="evenodd" clip-rule="evenodd" d="M22.559 57.5552C19.5592 57.5552 16.811 56.5806 14.6913 54.9631C13.6657 55.7463 12.4919 56.377 11.2138 56.8223H11.2111C12.0062 57.3066 12.8373 57.7415 13.6964 58.127C14.0426 57.9156 14.3758 57.6851 14.6913 57.4469C16.811 59.0592 19.5592 60 22.559 60C25.5615 60 28.3079 59.0592 30.4311 57.4469C30.745 57.6851 31.0754 57.9156 31.4226 58.127C32.2799 57.7415 33.1101 57.3083 33.9069 56.8223C32.6279 56.377 31.4533 55.7463 30.4311 54.9631C28.3079 56.5806 25.5615 57.5552 22.559 57.5552Z" fill="#0C0A09"/>
<path fill-rule="evenodd" clip-rule="evenodd" d="M40.2677 41.7982H36.3308V39.4244H32.3983V41.7982H28.4631V39.4244H24.5262V41.7982H20.591V39.4244H16.6576V41.7982H12.7207V39.4244H8.7855V41.7982H4.85121V39.4244H0.963383C1.02124 41.0436 1.26231 42.6195 1.66644 44.1252C3.23472 44.7871 4.97219 45.1553 6.82011 45.1553C9.81992 45.1553 12.5664 44.1789 14.6869 42.5632C16.8092 44.1789 19.5548 45.1553 22.5564 45.1553H22.5634C25.565 45.1553 28.3079 44.1789 30.432 42.5632C32.5517 44.1789 35.2981 45.1553 38.2997 45.1553C40.1424 45.1553 41.8833 44.7871 43.4481 44.1252C43.854 42.6195 44.0959 41.0436 44.1555 39.4244H40.2677V41.7982Z" fill="#0C0A09"/>
<path fill-rule="evenodd" clip-rule="evenodd" d="M29.7649 20.1588C29.7106 20.0297 29.7 19.7257 29.6483 19.5316C29.6211 19.4276 29.5107 19.2726 29.4037 19.1261C29.4037 19.1261 29.5142 19.2622 29.7237 19.3878C29.9139 19.5021 30.07 19.7438 30.0744 19.853C30.0744 19.853 30.0165 19.7534 29.8876 19.7724C29.7921 19.7837 29.736 19.9812 29.7649 20.1588C29.9578 20.3823 30.006 20.0765 30.006 20.0765C30.006 20.0765 30.0919 20.1441 30.0472 20.2619C30.0472 20.2619 30.169 20.3945 30.3154 20.2212C30.4101 20.1077 30.4206 19.7005 29.9788 19.3878C29.5387 19.0733 29.551 18.8351 29.551 18.8351C29.551 18.8351 29.6808 19.0239 29.9306 19.1201C30.1778 19.2171 30.2961 19.3453 30.3663 19.5099C30.3663 19.5099 30.3233 19.4146 30.1042 19.3817C30.1042 19.3817 30.6214 19.918 30.4627 20.2515C30.4627 20.2515 30.6792 20.0722 30.5398 19.7698C30.5398 19.7698 30.7029 19.9067 30.7029 20.0401C30.7029 20.0401 30.8738 19.8132 30.5039 19.4354C30.311 19.2344 30.3303 19.1348 30.2891 19.0603C30.2488 18.9841 30.1997 18.9442 30.0744 18.8203C29.9508 18.6982 29.9429 18.5596 29.8745 18.3898C29.8745 18.3898 29.9166 18.4989 30.0542 18.5752C30.0542 18.5752 30.1077 18.233 29.9858 18.0848C29.9858 18.0848 30.1173 18.2286 30.1515 18.3646C30.1866 18.4989 30.2751 18.6557 30.3365 18.738C30.3996 18.8203 30.4706 18.9433 30.4417 19.1599C30.4119 19.3817 30.6135 19.4432 30.6617 19.49C30.7099 19.5368 30.9519 19.7213 30.9177 20.0089C30.9177 20.0089 31.0492 19.8149 30.8423 19.477C30.6363 19.1348 30.7222 19.0542 30.7371 19.0187C30.7371 19.0187 30.7783 19.2431 30.965 19.3185C30.965 19.3185 31.0123 19.1955 30.7099 18.8403C30.4066 18.4859 30.1997 18.1455 30.212 17.7296C30.212 17.7296 30.2269 17.8864 30.4706 18.0276C30.4706 18.0276 30.3847 17.8188 30.3514 17.688C30.3172 17.5581 30.2558 17.0686 29.4756 16.9231C29.2188 16.9075 28.265 17.0643 28.0441 17.2219C27.8249 17.3796 27.5716 17.6759 27.5988 18.0172C27.604 18.0796 27.7732 18.4279 27.8144 18.4582C27.8179 18.4989 27.8179 18.5388 27.8197 18.5786C27.8214 18.6341 27.8214 18.6774 27.8197 18.6878C27.8144 18.732 27.7627 18.8403 27.81 18.881C27.8346 18.9026 27.8486 18.9451 27.8486 18.991C27.8486 19.1201 27.7101 19.6122 27.7101 19.7031C27.7101 19.7958 27.7311 19.9119 27.8951 19.8911C27.9564 19.8807 28.0046 19.8669 28.0388 19.8504C28.0441 19.9015 28.0406 20.0237 28.0353 20.0653C28.0958 20.0072 28.1695 20.0176 28.2361 20.0176C28.3465 20.0176 28.5403 20.0375 28.5403 20.0375C28.5403 20.0375 28.3781 20.0731 28.265 20.0964C28.1554 20.1164 28.1055 20.106 28.1055 20.106L28.0835 20.2108C28.0835 20.2108 28.3237 20.1952 28.4333 20.1103C28.4333 20.1103 28.3728 20.2273 28.2869 20.2619C28.1791 20.3052 28.1282 20.2203 28.0835 20.2108C28.0835 20.2108 28.1896 20.2455 28.1975 20.3737C28.2107 20.5054 28.1388 20.7046 28.3492 20.7228C28.457 20.7349 28.5832 20.7427 28.7016 20.7436C28.8164 20.7436 28.9225 20.7375 28.9838 20.7185C29.1004 20.6847 29.672 20.4404 29.7649 20.1588Z" fill="#0C0A09"/>
<path fill-rule="evenodd" clip-rule="evenodd" d="M28.5236 18.9208C28.4526 18.991 28.5061 19.1045 28.3422 19.1166C28.1975 19.127 28.1502 18.9061 28.1502 18.9061C28.1502 18.9061 28.3264 18.8247 28.4719 18.8325C28.6078 18.8394 28.6455 18.8827 28.6455 18.8827C28.6455 18.8827 28.5771 18.8697 28.5236 18.9208Z" fill="#0C0A09"/>
<path fill-rule="evenodd" clip-rule="evenodd" d="M28.0494 18.8784C27.9608 18.881 27.8951 18.8342 27.8951 18.8342C28.0476 18.7216 28.3053 18.6323 28.4465 18.6393C28.7051 18.6505 28.8146 18.8385 28.8146 18.8385C28.3728 18.6687 28.1405 18.8723 28.0494 18.8784Z" fill="#0C0A09"/>
<path fill-rule="evenodd" clip-rule="evenodd" d="M28.8909 18.3291C28.8217 18.3101 28.5526 18.4132 28.3062 18.3187C28.0634 18.3187 27.796 18.0432 27.796 18.0432C27.7785 17.9618 27.7908 17.9445 27.8425 17.9583C27.8933 17.9739 27.9258 18.0571 27.9652 18.1125C28.0047 18.1706 28.1142 18.2607 28.3062 18.3187C28.3062 18.194 28.2221 18.1125 28.2221 18.1125C28.2221 18.1125 28.3299 18.2226 28.436 18.2494C29.075 18.3898 28.7375 18.0978 28.7375 18.0978C29.203 18.3031 29.0663 18.5492 29.1846 18.8151C29.1276 18.732 29.1136 18.6107 29.0663 18.5154C28.9812 18.3482 28.8909 18.3291 28.8909 18.3291Z" fill="#0C0A09"/>
<path fill-rule="evenodd" clip-rule="evenodd" d="M14.3161 22.232C14.0768 22.1869 14.1487 22.342 14.2267 22.42C14.6984 22.886 15.426 23.8243 15.4566 24.6551C15.4566 24.6551 16.0045 24.8578 16.1001 24.0703C16.1571 23.599 15.9922 22.8037 15.9072 22.5863C15.9072 22.5863 15.9668 22.7007 16.1395 23.1425C16.3797 23.7688 16.2894 23.9906 16.3937 24.5615C16.4376 24.4429 16.4569 24.2956 16.4718 24.1483C16.4788 24.0054 16.4893 23.8546 16.4937 23.7255C16.5147 23.2993 16.4989 22.9294 16.4271 22.77C16.3403 22.5672 16.2921 22.4693 16.2526 22.4217C16.214 22.3706 15.6512 21.6619 15.6512 21.6619C15.6197 21.8283 15.546 21.9495 15.4496 22.0362C15.2357 22.2952 14.7781 22.3212 14.3161 22.232Z" fill="#0C0A09"/>
<path fill-rule="evenodd" clip-rule="evenodd" d="M29.0136 22.0526C29.2161 22.1081 29.4879 22.167 29.7316 22.1765C29.9884 22.1523 30.2488 22.096 30.4057 21.992C30.5284 21.9114 30.6704 21.7711 30.7897 21.616C30.844 21.5502 30.8879 21.4783 30.9273 21.409C30.9422 21.3847 30.9457 21.3613 30.9562 21.3362C30.986 21.2331 30.9957 21.039 30.7064 20.8216C30.5916 20.741 30.4601 20.4542 30.4495 20.4326C30.3303 20.4716 30.2234 20.3849 30.2234 20.3849C30.0708 20.4291 29.9963 20.3329 29.9963 20.3329C29.9411 20.3477 29.8201 20.3182 29.7649 20.1588C29.828 20.3945 29.3389 20.6258 29.1609 20.8484C29.0101 21.0356 28.9093 20.8008 28.8155 20.9082C28.8155 21.0537 28.8778 21.1005 28.8734 21.1785C28.8734 21.1785 28.8681 21.4263 28.8523 21.4999C28.819 21.6533 28.7647 21.992 29.0136 22.0526Z" fill="#0C0A09"/>
<path fill-rule="evenodd" clip-rule="evenodd" d="M32.4219 38.2228C32.386 38.0556 32.3159 38.0756 32.1414 38.1457C32.0143 38.1995 31.775 38.0877 31.6295 38.0556C31.4892 38.0236 31.4691 38.0695 31.3463 38.0946C31.2236 38.1215 31.0491 38.0756 31.0491 38.0756C30.6932 38.0305 30.7222 38.4195 30.7222 38.4195C30.7344 38.4654 30.7581 38.5061 30.7818 38.5434C30.8677 38.6075 30.9457 38.6222 31.0009 38.6499C31.0491 38.6751 31.0421 38.7037 31.0676 38.7478C31.0676 38.7478 31.5252 39.0744 31.782 38.792C31.8416 38.6629 31.5041 38.4516 31.5401 38.4706C31.5401 38.4706 31.7128 38.5512 31.8162 38.6751C31.9205 38.7981 32.0862 38.883 32.1949 38.773C32.2922 38.6257 31.9337 38.3874 31.9337 38.3874C31.9337 38.3874 32.102 38.4706 32.2045 38.5954C32.3141 38.7288 32.4088 38.773 32.4518 38.5988C32.386 38.4446 32.2168 38.3216 32.2168 38.3216C32.2168 38.3216 32.2948 38.3623 32.379 38.4412C32.4833 38.5382 32.5692 38.5087 32.5438 38.3363C32.5201 38.2921 32.4219 38.2228 32.4219 38.2228Z" fill="#0C0A09"/>
<path fill-rule="evenodd" clip-rule="evenodd" d="M56.2642 18.5856L55.1982 21.9002H57.3442L56.2642 18.5856ZM58.5513 25.6446L57.8219 23.3843H54.7204L53.963 25.6446H52.1107L55.4638 16.4917H57.0496L60.4036 25.6446H58.5513Z" fill="#0C0A09"/>
<path fill-rule="evenodd" clip-rule="evenodd" d="M64.9971 18.5856L63.932 21.9002H66.078L64.9971 18.5856ZM67.2851 25.6446L66.5557 23.3843H63.4542L62.6959 25.6446H60.8445L64.1976 16.4917H65.7834L69.1374 25.6446H67.2851Z" fill="#0C0A09"/>
<path fill-rule="evenodd" clip-rule="evenodd" d="M73.1094 17.9757H71.9592V20.4994H73.1094C74.2332 20.4994 74.7232 20.1113 74.7232 19.1964C74.7232 18.3223 74.2604 17.9757 73.1094 17.9757ZM74.9626 25.6446L72.8438 21.9834H71.9592V25.6446H70.1911V16.4917H73.2786C74.6259 16.4917 75.2431 16.6589 75.7901 17.1718C76.295 17.6292 76.5475 18.2945 76.5475 19.1548C76.5475 19.8617 76.3792 20.4301 76.0426 20.8736C75.6919 21.3181 75.3693 21.5121 74.5979 21.72L76.899 25.6446H74.9626Z" fill="#0C0A09"/>
<path fill-rule="evenodd" clip-rule="evenodd" d="M84.7553 25.6446V21.72H79.9979V25.6446H78.2297V16.4917H79.9979V20.1528H84.7553V16.4917H86.5226V25.6446H84.7553Z" fill="#0C0A09"/>
<path fill-rule="evenodd" clip-rule="evenodd" d="M95.1021 25.1594C94.4297 25.6168 93.6434 25.8247 92.4933 25.8247C91.3282 25.8247 90.57 25.6307 89.8695 25.1594C88.9149 24.507 88.6063 23.7447 88.6063 22.0666V16.4917H90.3596V22.1636C90.3596 23.5229 91.0758 24.2021 92.5485 24.2021C93.8959 24.2021 94.6121 23.4813 94.6121 22.1636V16.4917H96.3794V22.0666C96.3794 23.7447 96.0708 24.4932 95.1021 25.1594Z" fill="#0C0A09"/>
<path fill-rule="evenodd" clip-rule="evenodd" d="M103.65 18.6697C102.667 18.2391 101.868 18.0173 101.251 18.0173C100.423 18.0173 99.8894 18.35 99.8894 18.8637C99.8894 19.2518 100.114 19.4875 100.774 19.834C102.19 20.5834 103.117 21.1656 103.552 21.5953C103.945 21.9834 104.184 22.5933 104.184 23.2318C104.184 24.8674 102.977 25.8247 100.928 25.8247C100.647 25.8247 100.366 25.8109 100.1 25.7693C99.4405 25.6861 99.132 25.5752 98.1633 25.1317C98.0371 25.0762 97.8275 24.9792 97.5602 24.8536L98.3044 23.2457C98.9777 23.6061 99.2573 23.7447 99.6229 23.8833C100.087 24.0496 100.592 24.1467 100.956 24.1467C101.77 24.1467 102.303 23.7863 102.303 23.2318C102.303 22.8428 102.092 22.5794 101.489 22.2468L100.059 21.4428C98.4166 20.5132 97.9108 19.9033 97.9108 18.9053C97.9108 18.4479 98.052 17.9757 98.2755 17.6292C98.4298 17.3936 98.6691 17.1579 98.9636 16.95C99.6369 16.4917 100.212 16.3401 101.293 16.3401C101.91 16.3401 102.458 16.4094 103.033 16.5757C103.482 16.7143 103.734 16.8114 104.351 17.1025L103.65 18.6697Z" fill="#0C0A09"/>
<path fill-rule="evenodd" clip-rule="evenodd" d="M56.9655 38.6396L53.8789 34.2854V38.6396H52.1107V29.4868H53.8789V33.7578L56.7831 29.4868H58.8186L55.633 33.9389L58.9861 38.6396H56.9655Z" fill="#0C0A09"/>
<path fill-rule="evenodd" clip-rule="evenodd" d="M63.8855 30.8322C62.1314 30.8322 60.8401 32.2183 60.8401 34.0628C60.8401 35.9219 62.1314 37.2942 63.8855 37.2942C65.6256 37.2942 66.9169 35.9219 66.9169 34.0628C66.9169 32.2183 65.6256 30.8322 63.8855 30.8322ZM63.8855 38.819C60.9953 38.819 58.9607 36.8506 58.9607 34.0628C58.9607 31.235 60.9532 29.3213 63.8855 29.3213C66.8038 29.3213 68.7964 31.235 68.7964 34.0628C68.7964 36.8506 66.7617 38.819 63.8855 38.819Z" fill="#0C0A09"/>
<path fill-rule="evenodd" clip-rule="evenodd" d="M78.3148 38.6396V31.9272C78.2446 32.3994 78.2578 32.4687 77.9632 33.2319L75.8453 38.6396H74.2595L72.323 33.3281C72.1258 32.8022 72.1126 32.6498 71.9724 31.8727V38.6396H70.3717V29.4868H72.4905L74.9608 36.0181C75.059 36.2823 75.1011 36.3785 75.1431 36.7259C75.1992 36.2962 75.2273 36.2399 75.3114 36.0181L77.8791 29.4868H79.9979V38.6396H78.3148Z" fill="#0C0A09"/>
<path fill-rule="evenodd" clip-rule="evenodd" d="M90.2509 38.6396V31.9272C90.1807 32.3994 90.1948 32.4687 89.9002 33.2319L87.7814 38.6396H86.1956L84.2591 33.3281C84.0619 32.8022 84.0488 32.6498 83.9085 31.8727V38.6396H82.3087V29.4868H84.4275L86.8969 36.0181C86.9951 36.2823 87.0372 36.3785 87.0792 36.7259C87.1354 36.2962 87.1643 36.2399 87.2476 36.0181L89.8152 29.4868H91.934V38.6396H90.2509Z" fill="#0C0A09"/>
<path fill-rule="evenodd" clip-rule="evenodd" d="M100.563 38.1536C99.8894 38.611 99.1039 38.819 97.9529 38.819C96.7879 38.819 96.0305 38.6258 95.3292 38.1536C94.3745 37.5021 94.0668 36.7389 94.0668 35.0608V29.4868H95.8201V35.1587C95.8201 36.518 96.5354 37.1981 98.009 37.1981C99.3564 37.1981 100.072 36.4755 100.072 35.1587V29.4868H101.84V35.0608C101.84 36.7389 101.53 37.4891 100.563 38.1536Z" fill="#0C0A09"/>
<path fill-rule="evenodd" clip-rule="evenodd" d="M110.056 38.7228L106.084 32.8022C106.056 32.7598 106 32.6342 105.888 32.4419C105.832 32.3301 105.79 32.2608 105.776 32.2469C105.72 32.1352 105.692 32.0797 105.65 31.9272V38.6396H103.967V29.4868H106L109.886 35.5061C109.901 35.5329 109.943 35.6023 109.985 35.6984C110.028 35.7972 110.056 35.8526 110.069 35.8795L110.154 36.1151L110.238 36.2823V29.4868H111.908V38.7228H110.056Z" fill="#0C0A09"/>
<path fill-rule="evenodd" clip-rule="evenodd" d="M114.177 38.6396V29.4868H119.818V30.9708H115.945V33.2319H119.116V34.716H115.945V37.1556H120V38.6396H114.177Z" fill="#0C0A09"/>
</svg>
