<svg xmlns="http://www.w3.org/2000/svg" fill="none" viewBox="0 0 120 60">
  <path fill="currentColor" fill-rule="evenodd" d="M14.8141 37.6753c-.0158-.0355-.0369-.0667-.0544-.0936-.0219-.0285-.0464-.0554-.0771-.0831 0 0-.2174.0953-.3077.2235-.1771.2469.1762.797.1762.797-.2954-.0961-.4787-.3413-.4866-.5094-.007-.2244.2069-.7294.2069-.7294.0667-.201.1368-.4887.2069-.7867.0701-.2911.1359-.59.235-.9408.2007-.687.4935-1.4615.6592-2.1537.1253-.5094.2191-.9573.2498-1.2606.0754-.7424.1666-2.1389.2174-3.0555.0289-.4912.0202-.3674.0202-.4081 0-.1187.0692-1.3601.6671-1.8782.3953-.3387.767-.2807 1.2203-.4947 0 0-.6488-.2625-1.4474-.0875 0 0-1.3798 1.0717-2.0355 5.8495 0 0-.8047 4.4469-.8319 4.9-.0114.2357.2121 1.3611.2121 1.3611s.7005.2988.8477.2703c.0912-.0321.2139-.039.4217-.0945.2051-.0598.3331-.0727.6864.0425-.8407-.3726-.6733-.6602-.7863-.8681ZM20.6796 21.7182l.8301.0304c.2472.0086.3971-.0642.3831-.2253-.0123-.1299-.3629-.1984-.3629-.1984l-.6031.0927s-.071.253-.2472.3006ZM28.528 26.0525c0-.0675-.1227-1.0777-.1227-1.8479-.0036-.395-.0088-.7251-.0123-.8351-.0114-.2339-.2463-.1265-.2919-.0364-.1157.2097-.1666.1646-.1666.1646s-.0719-.0121-.0859.1915c-.0307-.149-.0473-.1361-.092-.1802-.1701-.1612-.2639.4002-.2639.4002s-.0149.1152-.0237.3942c-.0017.058-.0052.1299-.0052.2036 0 .2859.0254.8152.2025 1.2042.0341.0641.0736.0875.1262.0918 0 0-.0561.3951.0701.5874.2358.3613.3629.2781.3629.2781.4217-.3439.3051-.4722.3025-.616ZM18.6668 25.1073c0 .2097.0772.4038.2017.5666-.2122.1949-.4568.4575-.5032.5181-.0912.117-.2788.1698-.2788.1698s-.2007 1.1999.2534 1.0387c0 0 .0718-.2867.3164-.2347.4094.0883.519-.0659.6847-.1915.1104-.0823.4409-.0147.4409-.0147.2577-.0563.5628.0693.6154-.1629-.0018-.0321-.0097-.0572-.0097-.0572-.206-.1689-.7907-.0883-.7907-.0883s.0903-.0356.2157-.052c.0412-.0087.1227.0017.1297-.0659 0 0 .0509.0018.3182.0806.2157.0684.2297-.0381.2437-.0806-.0052-.0814-.0666-.1368-.0666-.1368s-.2831-.1161-.4181-.1395c-.1333-.0208-.5032.0286-.5032.0286s.0131-.0156.2279-.0598c.078-.0173.1552-.0173.1481-.0832 0 0 .1543.0147.3612.1144.1429.0693.213.0667.2525.045.0131-.0234.0473-.052.0526-.0728v-.0476c-.0167-.1187-.128-.1646-.128-.1646s-.4409-.1551-.5602-.1672c-.1183-.0156-.5031.0806-.5031.0806.0973-.0685.2051-.0771.3296-.0988.1735-.0329.1516-.1265.1516-.1265s.0368.0546.3849.156c.0955.0294.3453.1559.2726-.0694-.0193-.0294-.064-.0805-.1096-.1195.1105-.1542.1806-.3405.185-.5458.0096-.5302-.4147-.9712-.9441-.9833-.0649 0-.1263.0243-.1912.0355 0 0 .0018 0 .0018-.0017-.2507.3491-.5584.6757-.7811.9304Zm.6163-.3534c.0938-.0884.2156-.1386.3471-.1369.2692.0061.4831.2304.4787.499-.0026.1585-.0824.2894-.199.3769-.0482-.0156-.0877-.0226-.0973-.0304-.0439-.0251-.2919-.0095-.5242-.0026-.0053-.006-.0123-.0095-.0185-.0147-.0894-.0936-.1376-.2183-.1358-.3465.0052-.1308.0543-.2547.149-.3448ZM19.3234 37.8546c-.4769-.3439-1.741.2435-1.741.2435s-.2296.5258.2367.5172c.2534-.0043.6882.0225 1.0327-.052.2753-.0563.6995.0511 1.0642.0555.5479-.1482-.5926-.7642-.5926-.7642ZM11.9028 35.1144c-.1017.5978-.3314 1.6383-.3673 2.0143-.0325.3751-.0465 1.0422-.0465 1.0422.1429.084.3226.149.3875.1828l.7057-5.704s-.5751 1.8695-.6794 2.4647Z" clip-rule="evenodd"/>
  <path fill="currentColor" fill-rule="evenodd" d="m42.817 26.633-.2096-12.0057h.8548l-3.6898-7.2279c.3682-.1828.6233-.56052.6233-.99629 0-.61424-.5084-1.11671-1.1317-1.11671s-1.13.50247-1.13 1.11671c0 .43577.2534.81349.6198.99629l-3.688 7.2279h.8548l-.0623 3.5147-.2235-.8464c-.7373-2.8321-3.3373-4.9226-6.4292-4.9226-.0552 0-.1122.0018-.163.0044-.512-2.39025-2.3424-4.30226-4.6987-4.95634V5.06202h.355l-1.7445-3.41165c.2902-.14554.4874-.43836.4874-.777101C23.4418.390719 23.0465 0 22.559 0c-.4865 0-.8827.390719-.8827.873269 0 .338741.1955.631561.4848.777101l-1.7428 3.41165h.3559v2.35904c-2.3554.65408-4.1841 2.56609-4.6978 4.95634-.0543-.0026-.1096-.0044-.1648-.0044-3.0918 0-5.6875 2.0905-6.42915 4.9226l-.22442.8464-.06136-3.5147h.85293L6.36429 7.3994c.36731-.1828.6189-.56052.6189-.99629 0-.61424-.50318-1.11671-1.12997-1.11671-.62328 0-1.12734.50247-1.12734 1.11671 0 .43577.25159.81349.61978.99629l-3.68972 7.2279h.85471L2.30202 26.633H1.1738L.947632 38.6413H10.7518l-.2104-12.0083v-5.4666c0-.8681.2288-2.1754.4751-3.0383.0842-.2876.1736-.5657.2674-.8325.6829-1.8774 2.4984-3.2185 4.6277-3.2185.6321 0 1.236.1205 1.7883.3301-.028-.2174-.0464-.4384-.0464-.6653 0-2.684 2.1863-4.86453 4.9055-4.86453 2.7167 0 4.9048 2.18053 4.9048 4.86453 0 .2269-.0149.4479-.0465.6653.5532-.2096 1.1563-.3301 1.7883-.3301 2.1311 0 3.9457 1.3411 4.6277 3.2185.0973.2668.1841.5449.2665.8325.2498.8629.476 2.1702.476 3.0383v5.4666l-.2086 12.0083h9.8024l-.2244-12.0083H42.817ZM5.00553 17.3363h.00176v-.1308c.03243-.4375.39886-.7823.84594-.7823.23581 0 .44532.0944.5996.2469.14026.1412.23231.324.24721.5354h.00351v4.738H5.00553v-4.6072Zm-.39447 18.997H2.91303v-4.3897c0-.0216 0-.0433.0035-.0624.03244-.4349.39887-.7779.84595-.7779.44533 0 .81001.343.84419.7779 0 .0191.00439.0408.00439.0624v4.3897Zm1.24217-5.7957c-.70569 0-1.28075-.5649-1.28075-1.264 0-.6966.57506-1.264 1.28075-1.264.70743 0 1.27899.5674 1.27899 1.264 0 .6991-.57156 1.264-1.27899 1.264Zm2.94633 5.7957H7.10504v-4.3897c0-.0216 0-.0433.00176-.0624.03331-.4349.40061-.7779.84682-.7779.44708 0 .81175.343.84419.7779.00175.0191.00175.0408.00175.0624v4.3897ZM38.4163 17.2055h.0018c.0157-.2114.1078-.3942.2454-.5354.1534-.1525.3664-.2469.6005-.2469.4497 0 .817.3448.8477.7823v.1308h.0018v4.6072h-1.6972v-4.738Zm-.4024 19.1278h-1.698v-4.3897c0-.0216.0026-.0433.0044-.0624.0342-.4349.3971-.7779.8424-.7779.4489 0 .8136.343.8495.7779 0 .0191.0017.0408.0017.0624v4.3897Zm1.2501-5.7957c-.7057 0-1.2807-.5649-1.2807-1.264 0-.6966.575-1.264 1.2807-1.264.7075 0 1.2808.5674 1.2808 1.264 0 .6991-.5733 1.264-1.2808 1.264Zm2.942 5.7957h-1.7007v-4.3897c0-.0216.0035-.0433.0035-.0624.036-.4349.4006-.7779.8486-.7779.4453 0 .81.343.8459.7779 0 .0191.0027.0408.0027.0624v4.3897Z" clip-rule="evenodd"/>
  <path fill="currentColor" fill-rule="evenodd" d="m20.9487 21.3345.5812-.0096c.4138.0295.5391-.1447.3831-.3119-.0815-.0883-.6715-.0823-.6715-.0823l-.3901.1352s.1972.0416.0973.2686ZM24.3061 23.606c.0772.0052.1903-.007.2946-.0485.1753-.0763.4252-.2963.5312-.5242.0412-.2408-.1271-.4227-.2384-.473-.0886-.039-.1447-.0338-.2376-.0035-.0903.0295-.2893.1326-.2893.1326.064-.0633.0342-.1906.0342-.1906.1491.1005.7706-.1698.6487-.8793-.0236-.1473-.0464-.1854-.0447-.2625.0035-.1196.0193-.2149 0-.305-.0228-.1273.0474-.363.0325-.4782-.0114-.1161-.1912-.0875-.263-.0572-.2499.1109-.2586.5103-.2858.635 0 0-.0368-.0078-.0789-.0303-.057-.0208-.064-.0632-.1271-.123-.0316-.0286-.1508-.1707-.1999-.2391-.0517-.0667-.4076-.4522-.5663-.5969-.1534-.1369-.2568-.0095-.2647.0884-.0114.1117.2928.5336.2928.5336.2489.3301.3191.3595.3191.3595l-.0667.0503s.029-.039-.3182-.4098c-.0421-.0416-.3603-.4843-.4856-.6107-.1298-.1335-.2665.0017-.2902.0493-.0789.1672.4383.778.4383.778.2218.3162.4076.4332.4076.4332l-.0753.0658c.0447-.0381-.3998-.499-.3998-.499-.1814-.1845-.3252-.4193-.462-.5224-.1797-.1282-.2393.1646-.1472.2946.0342.045.0982.168.2244.3404.1192.1568.5409.5536.5409.5536l-.0412.0312c-.1061-.1325-.4357-.46-.6654-.6177-.2279-.1568-.2928.0459-.2349.1568.0517.104.2989.3994.3568.4652.0604.0667.5084.3873.5391.4341.0526.0814.1753.2503.2034.285.0534.0719.2138.2989.3112.376 0 0 .1937.1256.3138.0693-.1105.3041-.0053.6497.2936.739Z" clip-rule="evenodd"/>
  <path fill="currentColor" d="M30.9978 28.7916c.0147.0222.029.0454.0426.0696-.0142-.0205-.0284-.0438-.0426-.0696Z"/>
  <path fill="currentColor" fill-rule="evenodd" d="M23.4645 37.0248c-.0219.1227-.0409.229-.0534.2945-.2183 1.205.0482 1.6399.0482 1.6399s.4042-.3179.6119-1.5247c.1096-.6194.5041-2.8338.8652-4.8472-.106-.9599-.1639-1.8669.0754-2.0835.1456-.1317.427-.3535.3489-.2911.1377-.765.2262-1.2735.2262-1.2735l1.1265.4176c-.3988.1547-.6767.356-.9658.5653-.0457.0331-.0919.0666-.1388.1-.6353.9744-.4223 2.2444-.3369 2.753l.0117.0704c.0841.5319-.1674 1.3238-.1674 1.3238.1165 1.2735.3304 2.0203.3304 2.0203s.2683.6644.7557.8291c0 0-.519-.0798-.6031-.2452 0 0-.1315.1282-.1832.2581 0 0-.4892.3284-.3147.6316-.0336.0331-.061.061-.085.0854-.1008.1024-.1414.1437-.3183.2542l-.0368.0236c-.1846.1182-.2396.1534-.5882.2935-.1228.0502-.2867.1507-.3367.2365-.0166.0658.0342.078.05.0546.071-.0901.1824-.1378.1824-.1378-.1561.0832-.1499.175-.1009.214l.0246.0078c.0315.0087.0885 0 .1516-.1161.0272-.0563.086-.1057.2183-.149-.0041.0026-.0112.0063-.0204.0111-.0679.0352-.2483.1289-.1549.2661.1261.0547.203-.0674.245-.134.0099-.0158.0179-.0284.0241-.0349.089-.0879.1687-.1056.2827-.1309.0265-.0059.0548-.0122.0855-.0198-.3506.0996-.3857.1602-.2893.3214.0789.0831.2946.0944.4857.0199.167-.0018.3744-.0712.5758-.1386.1823-.061.3598-.1203.498-.1265.0918-.0083.1102-.0022.2073.0297.0245.008.0539.0177.0908.0292.1061.0338.4155.0338.4707-.0693.1955-.3673-.4541-.7762-.5698-.8325-.1139-.0555-.3927-.2521-.3927-.2521s.3734.2079.6873.311c.2305.0901.3813.1169.4304.1221.2542.0322.4335-.0262.6204-.0872.1346-.0439.2731-.0891.4465-.1025.9853-.8828 1.1729-1.3368 1.4814-2.6865.0193-.0809.0406-.1683.0631-.2606.1271-.5214.2924-1.1995.3393-1.7433-.0377.8464-.0342 1.083-.0166 1.3931.0271.5137.0797 2.2126.0412 2.4907-.0412.2773-.1894.3431-.1894.3431s.2499.6394.8135.7121c.1333.0139.2867 0 .4559-.0641 0 0 .561.4185 1.3798.149.1297-.0442.2665-.1065.4146-.1914.0956-.0555.1087-4.4175.0596-4.9962-.0324-.3925-.0701-.5007-.1884-.687 0 0 .1332.1776.3208.5007.0749.1315.0742.3386.0735.5481-.0003.0872-.0006.1749.0045.2576 0 0 .0281 3.8864.0123 4.2667.0517-.1403.1727-.2858.1727-.2858s.0131-4.797-.1201-5.8158c-.0182-.1359-.0608-.2342-.1019-.3289-.0379-.0875-.0745-.1719-.0892-.2801l-.0021-.0151c-.0912-.6746-.1158-.8566-.2925-1.1164 0 0 .2052.1638.3954.6255.1289.3154.2314.7633.3375 1.3949.0649.3552.1981.9113.1981.9113.1087-1.6139-.2104-2.2888-.2104-2.2888-.1017-.2773-.2717-.6818-.4453-.9547-.1301-.2145-.2619-.3921-.3422-.5002-.0306-.0413-.0537-.0724-.0663-.0915-.4484-.7221-.6445-1.1215-.918-1.6785-.1479-.301-.3184-.6482-.5635-1.1172-.6987-1.3376-.5251-2.4621-.5251-2.4621s.1315.4808.3059.6246c.0605.0468.2122.363.1473.778-.0219.1221.0175.518.3752 1.2319.4366.8689.8197 1.5421 1.0765 1.8565.2376.2911.3647.2539.3647.2539-.1271-1.0275-1.0204-4.33-1.0204-4.33s.3375.2002.4848.7867c.0177.0685.0409.192.0711.3531.0561.2995.1366.7291.2523 1.1768.2402.9443.9485 3.4428.9933 3.5122-.1196-.7752-.1669-1.1897-.2-1.4785-.0379-.3319-.0569-.4979-.1446-.8546-.0543-.2222-.0662-.4944-.0789-.7871-.0106-.2414-.0218-.4969-.0578-.7498-.121-.8672-.1561-1.1531-.1675-1.3194-.0999-1.6599-.6267-1.7673-.6267-1.7673.2375-.629-.0675-.7927-.0675-.7927-.1385-.0919-.4392-.1932-.5471-.1447-.1132.0728-.1541.0241-.1966-.0265-.0404-.048-.0822-.0978-.1891-.0463-.1367.0658-.4812.1785-.4812.1785.6487-.493.3769-.6429.3769-.6429-.5926.804-1.4166.7234-1.4166.7234-.2481.0234-.4909.02-.6329.0044-.1008-.0122-.1596.0753-.2017.1784l-.007-.0093c-.0121-.0162-.0254-.0341-.0429-.0435.0508-.0719.092-.1421-.0412-.2374-.0482-.0338-.0798-.0719-.1043-.1091 0 0-.1079-.227-.0123-.3942.0196-.0327.0414-.0629.063-.0929.0615-.0854.1211-.168.1211-.2944-.1789-.0112-.4375.0546-.5348.162-.0325.0344-.0615.0671-.0904.0996-.0598.0673-.1189.134-.2076.214-.1096.1092-.178.2452-.2367.467-.0509.2053.2077.3136.2077.3136s-.5303-.0693-.2147-.5094c-.0238.0231-.0816.0523-.1492.0864-.077.0389-.1667.0843-.2339.1345-.0858.066-.1465.2052-.2008.3298-.0256.0587-.0498.1141-.0745.1571-.0251.0436-.0554.1012-.0875.1622-.0688.1307-.146.2775-.1991.3377-.0772.0883-.32.5622-.3007.7208l-.0807.2391c-.0149.0459-.1542.0814-.1884.0589.6881.454.3015.9954.3015.9954s.299-.5354-.2709-.6991c-.5735-.1662-.7868-.6042-.897-.8303-.0254-.0521-.0453-.0929-.0629-.1166-.1527-.1993-.2901-.093-.4202.0076-.0566.0437-.1118.0864-.1662.1024-.128.0381-.1771.0502-.4603-.0052-.1858-.0191-.2875-.1637-.3436-.2616-.0613-.1066-.0499-.2816-.0499-.2816s-.2008.1897-.0377.4574c.163.2669.298.7234.341.8802.0447.1577.1814.6073.9546 1.5231 0 0 .0377.0337.0912.084-.0965.0546-.1692.1256-.1867.2183-.0237.1447.0736.2928.2472.3951-.0009.0058-.0026.0121-.0042.0181-.0017.0064-.0033.0125-.0037.0174-.1727.0745-.3507.1646-.3998.1966-.1437.0945-.2244.169-.2463.2556 0 .123.0763.13.2323.0373.0268-.0158.1763-.0725.2911-.116.0619-.0235.1137-.0431.1306-.0504.0815-.0355.1674-.0095.1674-.0095s-.6285.2738-.7381.3361c-.0807.0442-.1946.1265-.1815.2651.0132.0667.0886.0936.1526.0667.0423-.0203.2045-.0805.3333-.1283.0685-.0255.1276-.0474.1541-.0579.113-.0415.1246-.0364.1478-.0264.0083.0036.0181.0078.0345.0108 0 0-.6838.2945-.7355.3249-.0508.0303-.078.1031-.078.1628.0079.0763.078.123.1455.0962.0324-.0111.171-.0728.2904-.126.0679-.0302.1295-.0577.1619-.0715.0886-.039.1657.0112.1657.0112s-.5908.2573-.604.2807c-.0087.007-.0306.0407-.0228.065l-1.0344-.3621-.1841 1.0214 1.4307-.0165s-.5654 3.1925-1.0099 5.6754c.1534.648.2078 1.2753-.3796 2.1199-.025.135-.0509.28-.0737.4073Zm3.0867-13.171c.0719-.1101.3314-.2235.3314-.2235.1244-.0434.213-.0598.3348-.0434.0143.0016.0269.0034.0384.005.0889.0127.1108.0158.3018-.1592.0884-.0819.1508-.1721.2127-.2616.0853-.1232.1695-.2449.3194-.3413.1012-.0646.224-.1228.3383-.1769.0698-.0331.1364-.0646.1929-.0952.0105.0581.0447.1023.0938.117.0421.0121.0833-.0017.1183-.0295-.0201.1837-.0499.4956-.0561.7936-.0017.1559 0 .3049.0167.434.0453.3864.116.618.1753.8118.0199.0651.0385.1261.0544.1871 0 0-.334-.538-.3726-.8239 0 0-.0245 1.8046.1622 2.1815l-.0299.0242c-.1097.0889-.2053.1665-.2375.1872l-.057.0415c-.0648.0494-.2112.1542-.2112.1542-.0141.007-.0325.0165-.0518.0321-.1437.0866-.447.2642-.5119.2876-.0541.0261-.1167.0237-.1975.0206-.0292-.0012-.0609-.0024-.0953-.0024-.1161 0-.1802.0644-.2503.1346-.0088.0088-.0176.0177-.0267.0266 0 0-.348.0641-.4357.0104-.0596-.0338-.2717-.1811-.4339-.2981-.078-.0554-.142-.1031-.1753-.1316.1595-.0477.2892-.1343.3138-.2608.0114-.0771-.0211-.1534-.0693-.2261l.0044-.0002.0035-.0007-.5505-.3015c.1449-.0159.2479-.0143.3288-.013.1432.0023.217.0035.3313-.0961.2078-.1837.5058-.4427.7653-.6524.1885-.1548.204-.4039.2178-.6272.0053-.084.0111-.1644.025-.2348.0316-.9478-.9178-.4496-.9178-.4496Zm6.0882 8.2172c-.1491-.3162-.4278-.577-.4278-.577s-.1657-.0996-.1429-.3812c.0368-.4409.0964-.4028.2454-.2131.2207.2959.2536.5776.2934.9191.0094.0805.0192.1642.0319.2522Zm-5.1415 1.0846c-.0381-.161-.1236-.3812-.2125-.6103-.2009-.5178-.4192-1.0802-.1469-1.1024.0665-.0059.2542.1202.4837.2744.3485.2341.7933.533 1.0566.533.4334 0 .5484-.198.6299-.3383l.0012-.0022c.3226-.5787.4927-.6584.4927-.6584-.1166.1378-.2183.3084-.3989.6619-.0564.1129-.1172.23-.1802.3516-.1054.2032-.2173.4189-.3265.6482-.504 1.0595-1.5998 2.4959-1.5998 2.4959.2525-.5294.2805-1.9268.2007-2.2534Zm2.324-.9971c.0526.0138.0832.1273.0797.3032.0824-.4921.2464-.9513.5637-1.2016 0 0-.0657-.1231-.3463.1897-.1069.1222-.446.6947-.8592 1.3923-.6678 1.1272-1.529 2.581-1.9161 2.9888 0 0 .2761.4869.1656.8698 0 0 .5199-.2946 1.2115-2.0697l.1532-.391c.2994-.764.4138-1.0558.5315-1.4248.1499-.4315.3866-.6394.4164-.6567Zm.5373 4.7025c.0526-.1993.0667-2.6649.0667-2.6649.0789.9252.4006 3.0591.4006 3.0591-.3752-.039-.5207-.1976-.4673-.3942Zm2.0733-3.8611.0201.1384c.1149.7754-.1131 2.6735-.227 3.3943-.114.7156-.4129.5328-.4129.5328.2989.9157.7258.3812.7258.3812.0702-.6783.1692-3.1829.1289-4.1506-.043-.9729-.5847-1.4944-.5847-1.4944.2276.3573.2542.5403.3498 1.1983Zm-3.5346-10.4283c.4631.1099.6649.0569.8317.0131.0173-.0045.0343-.009.0511-.0131-.0447.194-.4576.1862-.4576.1862.0859.0416.2384.2088.3164.3362.1727.2746-.2384.1195-.2384.1195-.0263-.3708-.5032-.6419-.5032-.6419Zm.2022 2.6918c-.0244-.1348-.0458-.2533-.0646-.3362.0412.2053.1649.9789-.2226 1.3021.1692-.1421.3594-.3085.4059-.3639-.0458-.198-.0851-.4156-.1187-.602Zm-4.268 2.9593c.0052.0021.0107.004.0166.0057l-.0166-.0057Zm6.1657.5689c-.0935-.1406-.2096-.2457-.341-.3647-.0805-.0729-.1668-.1511-.2572-.2458-.078-.0814-.1981-.2642-.3253-.486-.1122-.1845-.2296-.4002-.3418-.6073-.0122-.0279-.0258-.0545-.0391-.0808-.0107-.021-.0213-.0419-.0311-.063-.1543-.2972-.2831-.5657-.334-.6974.0367.0975.0577.1448.0776.1897.0153.0344.0299.0674.0504.1204.0359.0989.0912.2194.1472.3416.1148.2505.2327.5079.1938.5993-.0754.1819-.6513.4002-.9485.5025-.2726.0892-.8293.2365-1.0861.2243-.1981-.0112-.3261-.1455-.3261-.1455.0885.175-.0605.4167-.284.2391 0 0-.0246-.0615-.0483-.1438-.0412.0052-.2787-.0156-.2787-.0156-.0935-.0023-.1773.0388-.2662.0823-.1137.0557-.2356.1154-.3966.0936-.2366-.0321-.3822-.1387-.4199-.3804-.0308.0873-.0352.0886-.1157.1119-.0178.0051-.0394.0114-.0657.0198-.0596.0173-.4524.1473-.4524.1473-.0432.0161-.182.0187-.2604-.0047l.2245.0775s.192-.0555.298-.0927c.0895-.0321.1903-.0338.1903-.0338s.0631.0372.1455.0788l-.0071.0416c-.0058.0344-.0114.0671-.0183.1057l.3953.0017.0149.0047c.013.0041.0265.0084.0404.0109.0865.0139.1718.0068.2527.0001l.0444-.0035c.1125-.0088.1284-.0085.18-.0077.02.0003.0454.0007.0839.0007l.3699.0035h.0474l-.1832 1.0223s.2007-.1967.7363.1013c0 0 .3323.3466.3217.4869-.0166.2036-.1025.3188-.4567.4237-.2621.0779-.2226.4331-.092.5379.1937.1491.8065.2877 1.3964.208.4576-.0624 1.0511-.1655 1.3001-.3691.0084-.007.0169-.0142.0256-.0216.056-.048.1232-.1055.2856-.1707-.047-.0122-.136.0126-.2095.0332-.0307.0086-.0587.0164-.0798.0205-.5049.0832-1.3307-.0927-2.4914-1.1488 0 0-.1928-.1646-.4795-.3092 0 0-.1937-.2781.2314-.1309 0 0-.1095-.0675-.2393-.2096-.0859-.0919-.163-.467.4541-.188 0 0 .9152.8039 1.9049.6298.6426-.1187.9669-.0494 1.4245.0979 0 0-.2419-.2538-.6916-.3387-.4515-.0841-.5637-.0979-1.4-.1386-.6075-.0287-.7883-.0989-.957-.1644-.081-.0315-.1593-.0618-.2808-.086 0 0-.4234-.318.2595-.2097.0684.0104.8538-.0251 1.6095-.3586.2342-.0991.4036-.0174.7167.1337l.0389.0187c.3025.1456.7855.5753.7855.5753.0168.0298.0335.0598.0503.0899.0602.1081.1207.2164.1837.3147.0824.1213.1701.2296.2709.3075 0 0 .2087.2322.2516.4722.0024.0125.0043.0249.0062.0374.0135.088.0271.1767.213.3126 0 0 .2735.0935.4663.3508-.2025-.3188-.3927-.5674-.5803-.7875-.1446-.1724-.3024-.3465-.3568-.3855-.1221-.1362-.4802-1.0541-.7275-1.6884-.113-.2897-.203-.5202-.2368-.59-.1069-.2253-.6303-1.8306-.6794-2.0446-.049-.2123-.5513-1.692-.5513-1.692s-.0456.3812-.0071.6888c.0281.2348.2227.9356.341 1.1505l.0053.0094c.1261.2261.5718 1.0254.7101 1.4694.0362.1179.0808.2867.1314.4779.1305.4934.3004 1.1359.4668 1.4373Zm-1.9807 1.2998c.782.4462 1.3211.0927 1.3211.0927-.3594.0832-.6917.0407-.7092-.117-.0473-.4141.7346-.6463.7346-.6463-.3299-.0036-.5289.0465-.791.1125-.116.0292-.2444.0616-.4021.0937-.5137.1118-1.2921-.2521-1.2921-.2521.0666.0546.3489.2712 1.1387.7165ZM16.5287 24.2939s.0614.7745.3384.9122c.3121.1551.512.5276.9398.3223 0 0 1.57-1.4529 1.5709-2.0662-.2113-.1317-.2814-.35-.2955-.3821.1307.2677.3928.4115.5602.266.3875-.337.384-.4011.384-.4011.2393.0441.5014-.2348.4909-.3059-.0079-.0788-.0465-.1498-.0991-.1854.2551.1733.3594-.1758.3594-.1758.1228-.0711.157-.1577.157-.1577l-.0421-.0433c.3883.0433.7293-.1473.7293-.1473.0395-.0346.043-.0632.029-.091-.029-.0563-.1403-.0892-.1403-.0892s-.945.0589-1.0037.0737c-.2069.0485-.1096.2356-.1158.3552-.0087.1507-.0639.2009-.0639.2009.0604-.1316.0385-.1793-.0202-.3084-.0544-.1187-.1508-.0745-.1148-.1533.0376-.0832.1078-.1681.3199-.1984.1666-.0208.3787-.3257.3919-.5527.0017-.0598-.0184-.0901-.0526-.1005-.1043-.0347-.3217.0875-.4059.1343-.0736.0476-.4024.1247-.4024.1247s.1306-.026.2709-.1022c.1368-.0763.4015-.2322.4795-.2322.0772 0 .3603-.0598.448-.0598.4725-.1533.2489-.3491.1446-.3569-.0491-.0035-.5514.0944-.6233.0944-.0876 0-.9283.3899-1.0326.4393-.1035.0528-.3717.6636-.4059.7814-.0359.1161-.1701.4644-.1701.4644-.2358-.0555-.3559.1732-.4514.2893-.1131.1291-.5707.713-.6505.7979-.0806.0875-.7206.4791-.7206.4791-.1683.2937-.0569.5129-.0727.4834 0 0-.1464-.1594-.0991-.4124 0 0 .0623-.1741.0158-.298-.0412-.0589-.1017-.1455-.1219-.175-.0394-.0528-.0753-.0953-.0929-.1161 0 0-.5216-.3283-.4322.8924Z" clip-rule="evenodd"/>
  <path fill="currentColor" fill-rule="evenodd" d="M19.5592 27.0055c.0149.1759.0325.3717.0526.5848-.5461.0676-1.0712.162-1.4858.2434-.2139.1828-.5567.35-.9126.4826l.0035-.0018c.0219.1387.0736.2452.1262.24 0 0 1.1475-.0034 2.3441-.11.0526.5657.1113 1.1964.1701 1.8427v-.0035c.0596.1378.1727 1.18.1122 1.2779.0026 0 .0026-.007.0026-.007 0 .0052 0 .007.0018.0104-.0018 0-.0018-.0017-.0044-.0034-1.0879-1.53-2.6702-2.1321-3.5863-2.3677-.2533-.0182-.4076-.0217-.4541.3864 0 0-.0517.6211-.0289.9503.0202.2573.1508.7061.32.7598.1692.0546.3734.0156.3734.0156-.05.0121-.206.11-.3042.1759-.0964.0658-.3103.1862-.3962.3335-.0868.1473.3208.0442.3208.0442.0184.1213.2209.078.2209.078s.0184.2954.6759-.0512c.3708-.1966.5532-.3725.8389-.46-.0946.0303-.2708.1655-.39.2634-.2218.1759-.3717.3249-.5813.4877-.1928.149-.8345.4098-1.3114.5346.0877.0927.2875.0216.2875.0216-.0026 1.1479 1.7726.188 1.7726.188-1.4315 1.1522-2.0022.0121-2.3546.4774 1.6585 1.1115 3.46-.8482 3.8194-1.232.4147-.4366.9459-.35.9459-.35s-.007.4315-.0552.9799c0-.0035.0017-.0122.0017-.0156.1499 1.6564.2762 3.0218.2937 3.2132.0561.5415.0561.7399-.1411.836-.2709.1334-.4383.117-.711-.071-.17-.1187-.3156-.2573-.4436-.4029-.1858-.2148-.3217-.4349-.4102-.5986.2323.149.4181.1568.5374.1334.014-.0034.0429-.0104.0429-.0104.0701-.0199.1113-.045.1149-.0502l.0806-.0581-.0842-.0502c-.0157-.0104-.0289-.0208-.0447-.0295 0 .0018-.0017.0018-.0017.0018v-.0018c-.8249-.544-.9888-1.4901-1.0213-1.8253.0281.2321.1429.719.6084.9798.7995-.998 1.0923-1.7206.6732-2.1962-.1884-.2148-.8713.1603-1.2965.4514-.3094.2148-.6171.4418-1.1002.836-.4365.3587-1.3491 1.2501-1.3491 1.2501s.9915-1.2908.4655-1.2284c-.3322.1594-.5172.6618-.7995 1.1539-.2314.4592-.2191.5588-.6522.7598-.0219.9174 1.7366-.11 2.373-.7373.377-.3742.4927-.5111.6014-.816l-.0333.0883c-.0728.2045-.1122.4029-.1297.5909-.242.2079-.1447.1386-.3524.2807-.0106.0103-.0369.0285-.0772.0589-.298.2217-1.3404 1.0049-2.2547 1.3948-.4111.1741.029.8698.029.8698-.0763.4669.5987.9391.5987.9391s.3322.1091.6268-.0797c.3305.123.8591-.0884 1.3552-.3656.6347-.3569 1.2089-.8222 1.2089-.8222-.1788-.1793-.3147-.2252-.4629-.2859 0 0-.1867-.0632-.5093 0-.3261.0607-.7775.2417-1.527.7208 0 0 .7118-.6315 1.3526-1.3116.1867-.2019.0087-.6316.0087-1.0543.0395.7156.3937 1.1998.3989 1.2085l.1578.2131-.0386-.2625c-.0315-.2079-.0079-.4687.0193-.6619.2122.6299.4339 1.0344.6338 1.303h.0018v.0035c.1998.2694.3769.408.5049.5042.384.2963.9757.6922 1.3851.9616l.0017.0009c.2621.1715.4489.2911.4532.2945l.0465.0295.0368-.0407c.0114-.0104 1.0038-1.0206 1.5078-1.6296.2034-.2486.5716-.6974.7004-2.0203.0702.1828.1491.4297.1675.6428l.0123.1473c-.0018.0182-.0036.0269-.0071.0442l.0071-.0459.0105.1152.1052-.2443c.0043-.0078.2253-.5311.1236-1.2094-.071-.4791-.3016-1.0336-.8819-1.5447l-.1517-.1352.0439.1993c0 .0121.2779 1.303-.6023 2.1728l-.0684.0693.0903.039c.0123.0069.3174.1282.6619-.227-.0815.2997-.2569.7832-.6049 1.1661-.2226.2434-.3813.2997-.6785.227-.2139-.0477-.2577-.2426-.327-.7789-.0456-.3569-.6592-4.6973-1.0572-7.5111 1.2133-.1603 2.3625-.4211 2.3625-.4211.0561-.0086.0842-.1334.0675-.2806-.0184-.1508-.0754-.2677-.1297-.2625 0 0-1.1966.0034-2.4195.1169-.0289-.2036-.0561-.389-.0807-.5579.0439.0017.0903.0043.1263.0017-.1227.0061-.2972-.0121-.4506-.0121-.0964 0-.156.0182-.2227.0459ZM12.4805 37.3314c.0894-.2521.0447-1.1661.0447-1.1661 0 .1455-.0307.6653-.384 1.2233-.1244.1966-.2647.9651-.2647.9651s.0868.2027.4129.1169c-.0324-.5415.0578-.7598.1911-1.1392ZM17.7473 26.302s-.7224.2972-.9652.4462c-.4418.2616-.5996.7268-.6215.8828-.0377.2824-.0658.5752.6434.3283 1.2755-.4418 1.258-.5319 1.258-.5319-.1929-.136.0245-1.0656.0245-1.0656-.0614-.0884-.3392-.0598-.3392-.0598ZM27.0596 6.70286l3.3181-.00087.0035.00433-.7382 3.1864-.0061.01472.0026-.00606-.0008.0078.0078-.01646 2.0513-2.5557h.0071l2.0697 2.56782-.7513-3.19592.0044-.0026 3.3206-.00346-2.998-1.40954 2.0732-2.56782-2.9849 1.43292-.7329-3.202854-.7276 3.198524-2.9849-1.43726-.0061.00693 2.0715 2.56263v.00347l-2.999 1.413ZM30.4259 50.0033c-2.1197 1.6175-4.8644 2.5904-7.8677 2.5904-2.999 0-5.7472-.9729-7.8677-2.5904-2.1188 1.6175-4.8653 2.5904-7.86861 2.5904-.22793 0-.41114-.0052-.63731-.0148.74689.8594 1.56127 1.6582 2.4414 2.3885 2.32042-.2971 4.36122-1.1842 6.06452-2.4838 2.1205 1.6166 4.8687 2.5921 7.8677 2.5921 3.0033 0 5.748-.9755 7.8677-2.5921 1.705 1.2996 3.7493 2.185 6.068 2.483.8766-.7312 1.6918-1.5283 2.4379-2.3877-.2245.0096-.4059.0148-.6356.0148-3.0024 0-5.7498-.9729-7.8703-2.5904ZM38.9344 52.5789l.0114-.0138c-.0053.0052-.0105.0104-.014.0138h.0026ZM16.1421 17.8777s-.1902.1144-.3103.0988c0 0-.2446.1837-.3199.3951-.0412.1117-.0675.1594-.1307.2209-.0701.0736-.1472.1091-.1472.1091 0 .046-.0132.0901-.036.1378-.0499.0944-.1245.2218-.1902.2867-.1026.104-.114.2244-.0938.2651.0544.0754 0 .1066-.0219.2045-.0193.0745.028.2486.0254.3232-.0123.2018-.0412.2304-.0912.3188-.0534.0918.0281.1949.0281.1949-.0228.0242-.0798.0546-.1184.0624.1368.33.5216.2902.6829.2711.0579-.0069.2358.0104.3419.0208.1263.0139.3638.0693.4734.0468.3287-.0598.2244-.3682.2139-.467-.0246-.1022-.2113-.2425-.2113-.2425s.1613.0675.3068.0701l-.0175-.0788s-.0473-.0165-.128-.0364c-.0938-.0208-.3033-.0277-.3033-.0277s.2928-.0563.49-.0295l-.0412-.2555c.4059.0078.327-.2253.2692-.3518-.0342-.071-.0965-.2287-.1385-.3864-.0307-.1169-.0597-.2096-.0597-.2261 0-.0104.0421-.097.029-.1628-.05-.2582-.0395-.6948-.0395-.6948-.0955 0-.2104-.0668-.2104-.0668s-.1271.0555-.2516 0Zm.1815 1.1306c-.0508.0303-.0868.0451-.1543.0104-.0841-.039 0-.1273-.2174-.1585 0 0 .036-.0347.1429-.0615.1701-.0494.2972.0251.2972.0251s-.0123.1516-.0684.1845Zm.0833-.2313c-.1026-.0147-.1543-.0745-.2945-.0459-.1403.026-.2639.0381-.3858.0061 0 0 .1473-.0382.2367-.0884.0877-.0529.3182-.1456.6356.0216 0 0-.0903.1213-.192.1066Z" clip-rule="evenodd"/>
  <path fill="currentColor" fill-rule="evenodd" d="M30.4259 45.0418c-2.1197 1.6166-4.8644 2.5947-7.8677 2.5947-2.999 0-5.7472-.9781-7.8677-2.5947-2.1188 1.6166-4.8653 2.5947-7.86861 2.5947-1.47273 0-2.86306-.2339-4.16747-.6654h-.00176c.42955.9998.93361 1.9597 1.50517 2.8728.8661.1785 1.73834.2729 2.66406.2729 3.00331 0 5.74981-.9764 7.86861-2.5938 2.1205 1.6174 4.8687 2.5938 7.8677 2.5938 3.0033 0 5.748-.9764 7.8677-2.5938 2.1205 1.6174 4.8679 2.5938 7.8703 2.5938.9266 0 1.7945-.0944 2.6649-.2729.5707-.9131 1.0748-1.873 1.5026-2.8728-1.3044.428-2.6948.6654-4.1675.6654-3.0024 0-5.7498-.9781-7.8703-2.5947ZM13.6043 20.0549c.0105-.0884.0158-.1092.0342-.1915.0403-.2001.1368-.3578.1368-.3578-.2174.7243.1236.9807.0666.9408 0 0-.1096-.2841.0684-.5033 0 0-.0509.2304.014.2946 0 0 .0088-.214.1359-.3769.1069-.1404.1385-.2149.1718-.3517.0421-.1837.0657-.2617.1096-.3336 0 0-.0456.1014-.0579.3076-.0044.1239-.0079.1377-.0438.2373-.0745.2062-.213.6013.0946.8109 0 0-.1621-.33.0027-.5406 0 0-.0368.331.1473.402 0 0-.0605-.2521.0368-.4574.0675-.1377.0675-.3015.0692-.3604 0 0 .0596.2227 0 .3708-.0517.1196-.0368.2894.0526.3725 0 0-.0631-.1057.0482-.2564.1131-.1482.178-.3275.1403-.4834-.0508-.2123-.1999-.311.0622-.6576 0 0-.0438.2547-.0043.4011-.0079-.0407-.0114-.097.0087-.175.0517-.2053.1096-.1481.0517-.3725-.0377-.1421.1149-.2807.1149-.2807s-.0176.0225-.0211.1022c0 .0364.029.0901.043.1257.0167.0467.0228.1498.0228.1498.0447-.0719.0289-.2425.0237-.3621-.0106-.1516.0701-.2997.0701-.2997s-.0158.0563-.007.2174c.0052.1074.0377.1932.0377.2746 0 0 .0806-.019.0911-.2287.0123-.1776.071-.2443.0561-.389.1.117.0412.3864.0412.3864.1403-.1724.0737-.2547.0509-.3976-.0219-.1317.1289-.2227.1289-.2227-.0632.0607-.043.2071.0341.2149.0702.0078.1955-.0884.1955-.0884s.2446-.0537.2446-.2616c0 0 .1017.2339.2586.0398 0 0 .0018.078.0587.123.2034.0659.1131-.2928.1131-.2928s.0509.0295.0921.0884c.106.1438.0473-.1152.0473-.1152-.1438-.2582-.7065-.3804-.9757-.4098-.2665-.0312-.5689-.0459-.8731-.0312-.4225.0243-.6215.2001-.817.3613-.1867.1542-.3629.4955-.5418 1.2536-.177.7597-.3725 1.3644-.3725 1.4623.014.5129.4953.2296.5382-.1394ZM17.9138 28.8776c-.5821-.2755-1.0581-.4418-1.0581-.4418-.8766.2157-.3296.5588-.2077.6116.4006.162.9976.4705 1.6261.8646.6443.4055 1.5551.9946 1.5788.3977-.3182-.5675-1.2036-1.0864-1.9391-1.4321ZM12.0632 9.30188c-.9678 0-1.8453-.3682-2.50361-.96424.79681.98676 2.04521 1.60793 3.42321 1.60793 2.4037 0 4.3489-1.92414 4.3489-4.29965 0-2.3755-1.9452-4.30137-4.3489-4.30137-1.3667 0-2.6264.63416-3.42321 1.61052.65831-.59777 1.53581-.96423 2.50361-.96423 2.0408 0 3.6959 1.63651 3.6959 3.65508 0 2.01771-1.6551 3.65596-3.6959 3.65596ZM13.2703 21.4783c-.035-.2703.1999-.3414.32-.3899 0 0-.1762.0043-.4515.2304-.0876.0711-.2384.2088-.3278.3137-.2963.3682-.6847.9062-.8477 1.4606-.3244 1.1089-.3524 1.575-.3831 2.2161-.0193.4072-.1332 1.8566-.1648 2.7818-.0202.6091-.0508.998-.0561 1.2857-.0132.285-.0649 8.5741-.0649 8.5741l.1561-1.912.4567-4.6297s.2191-1.7665.2621-2.878c.0447-1.1063.1332-3.2219.1779-3.526.043-.3093.2192-1.0959.3823-1.2856l-.2201 6.8874s.057 1.5013.0728 2.0428c0 0-.057 3.3666-.057 3.5156l.4418 2.3053c.1324.0676.341.0858.5909-.1022l-.2674-.7-.3813-2.0558s.1139-.0139.2051-.1049c.092-.0866.1473-.3049.1473-.3049.0289-.7009.7092-4.699.945-5.399.2358-.7009.3252-2.5089 2.0925-3.5901 0 0-.2043-.2028-.5584-.2617-.3542-.0589-.2639-.0892-.2639-.0892.1341-.2131-.2376-.7295-.2376-.7295-.4234-.68-.6662-.7909-1.0028-1.1765-.4427-.5033-.0298-.6592-.0298-.6592.0771.3387.2051.4946.3822.7364.1779.2443.6504 1.0993.6504 1.0993s.1797-1.2336-.6881-2.2472c-.213-.247-.4182-.4505-.5996-.6221-.0772-.0701-.1473-.1377-.2139-.1975-.0991-.091-.2998-.2902-.3147-.3145-.0246-.0268-.0228-.045-.0386-.0702.0719.0702.1832.143.3498.2132.6881.2954 1.3719.4349 1.7155.1412.1149-.0789.1245-.3535.0894-.4297-.0552-.1239-.1455-.1776-.0552-.4332.0307-.0866.0622-.1863-.1709-.1993-.2709-.0147-.476-.1845-.5243-.2659-.0289-.0459-.0526-.2131-.0526-.2131s-.0973.0216-.156-.0009c0 0-.1043.1317-.192.0858 0 0-.1849.1152-.3883.0147l-.2867.0858c0 .1914-.1227.408-.1227.408s-.2323.2902-.32.3899Zm1.1738 3.9496c.3025.7121.8311.5596.8311.5596-1.0038.4635-1.3763 2.2049-1.3763 2.2049.092-1.4312.7512-1.8211.5452-2.7645Zm-.7311-3.1613s-.1174-.0476-.2989-.1273c-.1508-.0685-.3568-.143-.476-.363-.0675-.1672.1253-.3864.2139-.4574 0 0-.2875.3136.561.9477ZM22.559 57.5552c-2.9998 0-5.748-.9746-7.8677-2.5921-1.0256.7832-2.1994 1.4139-3.4775 1.8592h-.0027c.7951.4843 1.6262.9192 2.4853 1.3047.3462-.2114.6794-.4419.9949-.6801C16.811 59.0592 19.5592 60 22.559 60c3.0025 0 5.7489-.9408 7.8721-2.5531.3139.2382.6443.4687.9915.6801.8573-.3855 1.6875-.8187 2.4843-1.3047-1.279-.4453-2.4536-1.076-3.4758-1.8592-2.1232 1.6175-4.8696 2.5921-7.8721 2.5921Z" clip-rule="evenodd"/>
  <path fill="currentColor" fill-rule="evenodd" d="M40.2677 41.7982h-3.9369v-2.3738h-3.9325v2.3738h-3.9352v-2.3738h-3.9369v2.3738H20.591v-2.3738h-3.9334v2.3738h-3.9369v-2.3738H8.7855v2.3738H4.85121v-2.3738H.963383c.057857 1.6192.298927 3.1951.703057 4.7008 1.56828.6619 3.30575 1.0301 5.15367 1.0301 2.99981 0 5.74629-.9764 7.86679-2.5921 2.1223 1.6157 4.8679 2.5921 7.8695 2.5921h.007c3.0016 0 5.7445-.9764 7.8686-2.5921 2.1197 1.6157 4.8661 2.5921 7.8677 2.5921 1.8427 0 3.5836-.3682 5.1484-1.0301.4059-1.5057.6478-3.0816.7074-4.7008h-3.8878v2.3738ZM29.7649 20.1588c-.0543-.1291-.0649-.4331-.1166-.6272-.0272-.104-.1376-.259-.2446-.4055 0 0 .1105.1361.32.2617.1902.1143.3463.356.3507.4652 0 0-.0579-.0996-.1868-.0806-.0955.0113-.1516.2088-.1227.3864.1929.2235.2411-.0823.2411-.0823s.0859.0676.0412.1854c0 0 .1218.1326.2682-.0407.0947-.1135.1052-.5207-.3366-.8334-.4401-.3145-.4278-.5527-.4278-.5527s.1298.1888.3796.285c.2472.097.3655.2252.4357.3898 0 0-.043-.0953-.2621-.1282 0 0 .5172.5363.3585.8698 0 0 .2165-.1793.0771-.4817 0 0 .1631.1369.1631.2703 0 0 .1709-.2269-.199-.6047-.1929-.201-.1736-.3006-.2148-.3751-.0403-.0762-.0894-.1161-.2147-.24-.1236-.1221-.1315-.2607-.1999-.4305 0 0 .0421.1091.1797.1854 0 0 .0535-.3422-.0684-.4904 0 0 .1315.1438.1657.2798.0351.1343.1236.2911.185.3734.0631.0823.1341.2053.1052.4219-.0298.2218.1718.2833.22.3301.0482.0468.2902.2313.256.5189 0 0 .1315-.194-.0754-.5319-.206-.3422-.1201-.4228-.1052-.4583 0 0 .0412.2244.2279.2998 0 0 .0473-.123-.2551-.4782-.3033-.3544-.5102-.6948-.4979-1.1107 0 0 .0149.1568.2586.298 0 0-.0859-.2088-.1192-.3396-.0342-.1299-.0956-.6194-.8758-.7649-.2568-.0156-1.2106.1412-1.4315.2988-.2192.1577-.4725.454-.4453.7953.0052.0624.1744.4107.2156.441.0035.0407.0035.0806.0053.1204.0017.0555.0017.0988 0 .1092-.0053.0442-.057.1525-.0097.1932.0246.0216.0386.0641.0386.11 0 .1291-.1385.6212-.1385.7121 0 .0927.021.2088.185.188.0613-.0104.1095-.0242.1437-.0407.0053.0511.0018.1733-.0035.2149.0605-.0581.1342-.0477.2008-.0477.1104 0 .3042.0199.3042.0199s-.1622.0356-.2753.0589c-.1096.02-.1595.0096-.1595.0096l-.022.1048s.2402-.0156.3498-.1005c0 0-.0605.117-.1464.1516-.1078.0433-.1587-.0416-.2034-.0511 0 0 .1061.0347.114.1629.0132.1317-.0587.3309.1517.3491.1078.0121.234.0199.3524.0208.1148 0 .2209-.0061.2822-.0251.1166-.0338.6882-.2781.7811-.5597Z" clip-rule="evenodd"/>
  <path fill="currentColor" fill-rule="evenodd" d="M28.5236 18.9208c-.071.0702-.0175.1837-.1814.1958-.1447.0104-.192-.2105-.192-.2105s.1762-.0814.3217-.0736c.1359.0069.1736.0502.1736.0502s-.0684-.013-.1219.0381Z" clip-rule="evenodd"/>
  <path fill="currentColor" fill-rule="evenodd" d="M28.0494 18.8784c-.0886.0026-.1543-.0442-.1543-.0442.1525-.1126.4102-.2019.5514-.1949.2586.0112.3681.1992.3681.1992-.4418-.1698-.6741.0338-.7652.0399ZM28.8909 18.3291c-.0692-.019-.3383.0841-.5847-.0104-.2428 0-.5102-.2755-.5102-.2755-.0175-.0814-.0052-.0987.0465-.0849.0508.0156.0833.0988.1227.1542.0395.0581.149.1482.341.2062 0-.1247-.0841-.2062-.0841-.2062s.1078.1101.2139.1369c.639.1404.3015-.1516.3015-.1516.4655.2053.3288.4514.4471.7173-.057-.0831-.071-.2044-.1183-.2997-.0851-.1672-.1754-.1863-.1754-.1863ZM14.3161 22.232c-.2393-.0451-.1674.11-.0894.188.4717.466 1.1993 1.4043 1.2299 2.2351 0 0 .5479.2027.6435-.5848.057-.4713-.1079-1.2666-.1929-1.484 0 0 .0596.1144.2323.5562.2402.6263.1499.8481.2542 1.419.0439-.1186.0632-.2659.0781-.4132.007-.1429.0175-.2937.0219-.4228.021-.4262.0052-.7961-.0666-.9555-.0868-.2028-.135-.3007-.1745-.3483-.0386-.0511-.6014-.7598-.6014-.7598-.0315.1664-.1052.2876-.2016.3743-.2139.259-.6715.285-1.1335.1958ZM29.0136 22.0526c.2025.0555.4743.1144.718.1239.2568-.0242.5172-.0805.6741-.1845.1227-.0806.2647-.2209.384-.376.0543-.0658.0982-.1377.1376-.207.0149-.0243.0184-.0477.0289-.0728.0298-.1031.0395-.2972-.2498-.5146-.1148-.0806-.2463-.3674-.2569-.389-.1192.039-.2261-.0477-.2261-.0477-.1526.0442-.2271-.052-.2271-.052-.0552.0148-.1762-.0147-.2314-.1741.0631.2357-.426.467-.604.6896-.1508.1872-.2516-.0476-.3454.0598 0 .1455.0623.1923.0579.2703 0 0-.0053.2478-.0211.3214-.0333.1534-.0876.4921.1613.5527ZM32.4219 38.2228c-.0359-.1672-.106-.1472-.2805-.0771-.1271.0538-.3664-.058-.5119-.0901-.1403-.032-.1604.0139-.2832.039-.1227.0269-.2972-.019-.2972-.019-.3559-.0451-.3269.3439-.3269.3439.0122.0459.0359.0866.0596.1239.0859.0641.1639.0788.2191.1065.0482.0252.0412.0538.0667.0979 0 0 .4576.3266.7144.0442.0596-.1291-.2779-.3404-.2419-.3214 0 0 .1727.0806.2761.2045.1043.123.27.2079.3787.0979.0973-.1473-.2612-.3856-.2612-.3856s.1683.0832.2708.208c.1096.1334.2043.1776.2473.0034-.0658-.1542-.235-.2772-.235-.2772s.078.0407.1622.1196c.1043.097.1902.0675.1648-.1049-.0237-.0442-.1219-.1135-.1219-.1135ZM56.2642 18.5856l-1.066 3.3146h2.146l-1.08-3.3146Zm2.2871 7.059-.7294-2.2603h-3.1015l-.7574 2.2603h-1.8523l3.3531-9.1529h1.5858l3.354 9.1529h-1.8523ZM64.9971 18.5856l-1.0651 3.3146h2.146l-1.0809-3.3146Zm2.288 7.059-.7294-2.2603h-3.1015l-.7583 2.2603h-1.8514l3.3531-9.1529h1.5858l3.354 9.1529h-1.8523ZM73.1094 17.9757h-1.1502v2.5237h1.1502c1.1238 0 1.6138-.3881 1.6138-1.303 0-.8741-.4628-1.2207-1.6138-1.2207Zm1.8532 7.6689-2.1188-3.6612h-.8846v3.6612h-1.7681v-9.1529h3.0875c1.3473 0 1.9645.1672 2.5115.6801.5049.4574.7574 1.1227.7574 1.983 0 .7069-.1683 1.2753-.5049 1.7188-.3507.4445-.6733.6385-1.4447.8464l2.3011 3.9246h-1.9364ZM84.7553 25.6446V21.72h-4.7574v3.9246h-1.7682v-9.1529h1.7682v3.6611h4.7574v-3.6611h1.7673v9.1529h-1.7673ZM95.1021 25.1594c-.6724.4574-1.4587.6653-2.6088.6653-1.1651 0-1.9233-.194-2.6238-.6653-.9546-.6524-1.2632-1.4147-1.2632-3.0928v-5.5749h1.7533v5.6719c0 1.3593.7162 2.0385 2.1889 2.0385 1.3474 0 2.0636-.7208 2.0636-2.0385v-5.6719h1.7673v5.5749c0 1.6781-.3086 2.4266-1.2773 3.0928ZM103.65 18.6697c-.983-.4306-1.782-.6524-2.399-.6524-.828 0-1.3616.3327-1.3616.8464 0 .3881.2246.6238.8846.9703 1.416.7494 2.343 1.3316 2.778 1.7613.393.3881.632.998.632 1.6365 0 1.6356-1.207 2.5929-3.256 2.5929-.281 0-.562-.0138-.828-.0554-.6595-.0832-.968-.1941-1.9367-.6376-.1262-.0555-.3358-.1525-.6031-.2781l.7442-1.6079c.6733.3604.9529.499 1.3185.6376.4641.1663.9691.2634 1.3331.2634.814 0 1.347-.3604 1.347-.9149 0-.389-.211-.6524-.814-.985l-1.43-.804c-1.6424-.9296-2.1482-1.5395-2.1482-2.5375 0-.4574.1412-.9296.3647-1.2761.1543-.2356.3936-.4713.6881-.6792.6733-.4583 1.2484-.6099 2.3294-.6099.617 0 1.165.0693 1.74.2356.449.1386.701.2357 1.318.5268l-.701 1.5672ZM56.9655 38.6396l-3.0866-4.3542v4.3542h-1.7682v-9.1528h1.7682v4.271l2.9042-4.271h2.0355l-3.1856 4.4521 3.3531 4.7007h-2.0206ZM63.8855 30.8322c-1.7541 0-3.0454 1.3861-3.0454 3.2306 0 1.8591 1.2913 3.2314 3.0454 3.2314 1.7401 0 3.0314-1.3723 3.0314-3.2314 0-1.8445-1.2913-3.2306-3.0314-3.2306Zm0 7.9868c-2.8902 0-4.9248-1.9684-4.9248-4.7562 0-2.8278 1.9925-4.7415 4.9248-4.7415 2.9183 0 4.9109 1.9137 4.9109 4.7415 0 2.7878-2.0347 4.7562-4.9109 4.7562ZM78.3148 38.6396v-6.7124c-.0702.4722-.057.5415-.3516 1.3047l-2.1179 5.4077h-1.5858l-1.9365-5.3115c-.1972-.5259-.2104-.6783-.3506-1.4554v6.7669h-1.6007v-9.1528h2.1188l2.4703 6.5313c.0982.2642.1403.3604.1823.7078.0561-.4297.0842-.486.1683-.7078l2.5677-6.5313h2.1188v9.1528h-1.6831ZM90.2509 38.6396v-6.7124c-.0702.4722-.0561.5415-.3507 1.3047l-2.1188 5.4077h-1.5858l-1.9365-5.3115c-.1972-.5259-.2103-.6783-.3506-1.4554v6.7669h-1.5998v-9.1528h2.1188l2.4694 6.5313c.0982.2642.1403.3604.1823.7078.0562-.4297.0851-.486.1684-.7078l2.5676-6.5313h2.1188v9.1528h-1.6831ZM100.563 38.1536c-.6736.4574-1.4591.6654-2.6101.6654-1.165 0-1.9224-.1932-2.6237-.6654-.9547-.6515-1.2624-1.4147-1.2624-3.0928v-5.574h1.7533v5.6719c0 1.3593.7153 2.0394 2.1889 2.0394 1.3474 0 2.063-.7226 2.063-2.0394v-5.6719h1.768v5.574c0 1.6781-.31 2.4283-1.277 3.0928ZM110.056 38.7228l-3.972-5.9206c-.028-.0424-.084-.168-.196-.3603-.056-.1118-.098-.1811-.112-.195-.056-.1117-.084-.1672-.126-.3197v6.7124h-1.683v-9.1528H106l3.886 6.0193c.015.0268.057.0962.099.1923.043.0988.071.1542.084.1811l.085.2356.084.1672v-6.7955h1.67v9.236h-1.852ZM114.177 38.6396v-9.1528h5.641v1.484h-3.873v2.2611h3.171v1.4841h-3.171v2.4396H120v1.484h-5.823Z" clip-rule="evenodd"/>
</svg>
